<svg width="825" height="429" viewBox="0 0 825 429" fill="none" xmlns="http://www.w3.org/2000/svg">
<path d="M41.5996 390.962L262.899 206.084L357.12 288.36L542.98 204.237L757.371 370.624" stroke="#263238" stroke-linecap="round" stroke-linejoin="round"/>
<path d="M213.924 246.889L232.719 240.542L242.117 250.594L259.93 237.362L267.352 242.657L277.732 231.542L304.44 257.467L308.893 247.415" stroke="#263238" stroke-linecap="round" stroke-linejoin="round"/>
<path d="M465.205 240.004L495.373 234.721L499.826 248.467L515.161 239.478L525.05 251.646L556.714 233.131L572.541 242.658L580.454 234.721" stroke="#263238" stroke-linecap="round" stroke-linejoin="round"/>
<path d="M693.541 427.232H801.8C799.72 413.989 791.21 416.326 790.112 395.801C789.539 385.469 799.1 372.681 798.294 359.111C797.604 347.925 786.605 336.459 785.728 323.671C784.957 312.123 794.366 299.324 793.455 286.876C792.59 275.117 781.415 263.826 780.422 251.611C779.452 239.677 788.674 226.738 787.587 214.687C786.5 202.636 775.127 191.556 773.923 179.622C772.684 167.395 781.591 154.246 780.235 142.546C778.785 130.132 767.074 119.414 765.484 107.982C763.672 95.277 771.994 81.6715 770.054 70.731C767.716 57.2658 755.14 47.5176 752.521 37.5823C747.6 19.0676 748.22 1.23092 742.411 0.0620635C736.216 -1.17692 734.801 16.3208 730.114 35.8758C727.777 45.6942 715.492 55.6411 713.47 69.118C711.845 80.0351 720.483 93.3016 719.092 105.984C717.818 117.345 706.398 128.262 705.288 140.605C704.248 152.212 713.47 165.023 712.605 177.155C711.717 188.961 700.636 200.217 699.876 212.221C699.116 224.225 708.666 236.767 708.058 248.596C707.392 260.728 696.51 272.183 695.949 283.848C695.364 296.191 705.101 308.64 704.633 320.083C704.107 332.777 693.377 344.395 692.945 355.487C692.466 368.953 702.296 381.378 702.05 391.629C701.396 413.837 691.203 409.267 690.841 427.173L693.541 427.232Z" fill="#0046FF"/>
<path opacity="0.3" d="M693.541 427.232H801.8C799.72 413.989 791.21 416.326 790.112 395.801C789.539 385.469 799.1 372.681 798.294 359.111C797.604 347.925 786.605 336.459 785.728 323.671C784.957 312.123 794.366 299.324 793.455 286.876C792.59 275.117 781.415 263.826 780.422 251.611C779.452 239.677 788.674 226.738 787.587 214.687C786.5 202.636 775.127 191.556 773.923 179.622C772.684 167.395 781.591 154.246 780.235 142.546C778.785 130.132 767.074 119.414 765.484 107.982C763.672 95.277 771.994 81.6715 770.054 70.731C767.716 57.2658 755.14 47.5176 752.521 37.5823C747.6 19.0676 748.22 1.23092 742.411 0.0620635C736.216 -1.17692 734.801 16.3208 730.114 35.8758C727.777 45.6942 715.492 55.6411 713.47 69.118C711.845 80.0351 720.483 93.3016 719.092 105.984C717.818 117.345 706.398 128.262 705.288 140.605C704.248 152.212 713.47 165.023 712.605 177.155C711.717 188.961 700.636 200.217 699.876 212.221C699.116 224.225 708.666 236.767 708.058 248.596C707.392 260.728 696.51 272.183 695.949 283.848C695.364 296.191 705.101 308.64 704.633 320.083C704.107 332.777 693.377 344.395 692.945 355.487C692.466 368.953 702.296 381.378 702.05 391.629C701.396 413.837 691.203 409.267 690.841 427.173L693.541 427.232Z" fill="white"/>
<path d="M740.038 35.5835V422.217" stroke="#263238" stroke-linecap="round" stroke-linejoin="round"/>
<path d="M756.939 76.1195L739.313 91.338L724.889 72.1104" stroke="#263238" stroke-linecap="round" stroke-linejoin="round"/>
<path d="M756.939 143.411L739.313 158.641L724.889 139.413" stroke="#263238" stroke-linecap="round" stroke-linejoin="round"/>
<path d="M756.939 206.704L739.313 221.923L724.889 202.695" stroke="#263238" stroke-linecap="round" stroke-linejoin="round"/>
<path d="M756.939 282.013L739.313 297.232L724.889 278.004" stroke="#263238" stroke-linecap="round" stroke-linejoin="round"/>
<path d="M756.939 358.118L739.313 373.336L724.889 354.108" stroke="#263238" stroke-linecap="round" stroke-linejoin="round"/>
<path d="M591.5 427.232H672.373C670.818 417.343 664.471 419.05 663.63 403.749C663.197 396.035 670.339 386.485 669.731 376.34C669.217 367.982 660.976 359.415 660.38 349.865C659.796 341.239 666.832 331.666 666.143 322.374C665.5 313.584 657.154 305.157 656.418 296.028C655.693 287.121 662.578 277.443 661.771 268.443C660.965 259.443 652.42 251.155 651.555 242.284C650.632 233.155 657.294 223.325 656.231 214.582C655.155 205.313 646.401 197.306 645.22 188.762C643.899 179.247 650.094 169.09 648.645 160.873C646.868 150.809 637.506 143.527 635.53 136.105C631.86 122.277 632.316 108.941 627.979 108.053C623.304 107.129 622.299 120.197 618.792 134.808C617.027 142.136 607.864 149.57 606.367 159.646C605.199 167.828 611.616 177.705 610.552 187.184C609.605 195.67 601.084 203.828 600.254 213.051C599.471 221.724 606.391 231.285 605.713 240.355C605.047 249.168 596.771 257.584 596.198 266.538C595.626 275.491 602.767 284.865 602.276 293.713C601.774 302.772 593.65 311.328 593.241 320.048C592.797 329.27 600.079 338.574 599.717 347.13C599.331 356.61 591.313 365.294 591.02 373.581C590.658 383.633 598.033 392.926 597.823 400.582C597.32 417.203 589.711 413.755 589.442 427.138L591.5 427.232Z" fill="#0046FF"/>
<path opacity="0.3" d="M591.5 427.232H672.373C670.818 417.343 664.471 419.05 663.63 403.749C663.197 396.035 670.339 386.485 669.731 376.34C669.217 367.982 660.976 359.415 660.38 349.865C659.796 341.239 666.832 331.666 666.143 322.374C665.5 313.584 657.154 305.157 656.418 296.028C655.693 287.121 662.578 277.443 661.771 268.443C660.965 259.443 652.42 251.155 651.555 242.284C650.632 233.155 657.294 223.325 656.231 214.582C655.155 205.313 646.401 197.306 645.22 188.762C643.899 179.247 650.094 169.09 648.645 160.873C646.868 150.809 637.506 143.527 635.53 136.105C631.86 122.277 632.316 108.941 627.979 108.053C623.304 107.129 622.299 120.197 618.792 134.808C617.027 142.136 607.864 149.57 606.367 159.646C605.199 167.828 611.616 177.705 610.552 187.184C609.605 195.67 601.084 203.828 600.254 213.051C599.471 221.724 606.391 231.285 605.713 240.355C605.047 249.168 596.771 257.584 596.198 266.538C595.626 275.491 602.767 284.865 602.276 293.713C601.774 302.772 593.65 311.328 593.241 320.048C592.797 329.27 600.079 338.574 599.717 347.13C599.331 356.61 591.313 365.294 591.02 373.581C590.658 383.633 598.033 392.926 597.823 400.582C597.32 417.203 589.711 413.755 589.442 427.138L591.5 427.232Z" fill="white"/>
<path d="M626.215 134.632V423.48" stroke="#263238" stroke-linecap="round" stroke-linejoin="round"/>
<path d="M638.85 164.918L625.677 176.291L614.9 161.925" stroke="#263238" stroke-linecap="round" stroke-linejoin="round"/>
<path d="M638.85 215.19L625.677 226.563L614.9 212.198" stroke="#263238" stroke-linecap="round" stroke-linejoin="round"/>
<path d="M638.85 262.47L625.677 273.843L614.9 259.478" stroke="#263238" stroke-linecap="round" stroke-linejoin="round"/>
<path d="M638.85 318.739L625.677 330.112L614.9 315.747" stroke="#263238" stroke-linecap="round" stroke-linejoin="round"/>
<path d="M638.85 375.592L625.677 386.965L614.9 372.6" stroke="#263238" stroke-linecap="round" stroke-linejoin="round"/>
<path d="M56.8183 427.232H115.647C114.478 420.043 109.896 421.306 109.277 410.155C108.973 404.544 114.162 397.601 113.718 390.214C113.344 384.148 107.36 377.918 106.892 370.963C106.471 364.698 111.568 357.732 111.088 350.976C110.621 344.582 104.543 338.457 104.005 331.807C103.491 325.331 108.493 318.295 107.897 311.749C107.301 305.203 101.13 299.184 100.475 292.72C99.8205 286.256 104.648 278.939 103.912 272.581C103.117 265.836 96.7581 260.015 95.8932 253.797C94.9347 246.878 99.3997 239.49 98.3828 233.518C97.0971 226.2 90.2827 220.906 88.845 215.505C86.18 205.442 86.5073 195.752 83.363 195.121C79.9967 194.443 79.2253 203.945 76.6772 214.57C75.3914 219.912 68.729 225.312 67.6303 232.641C66.7536 238.567 71.4524 245.779 70.681 252.675C69.9913 258.835 63.7964 264.773 63.1886 271.482C62.6159 277.782 67.6536 284.748 67.1627 291.352C66.6835 297.758 60.6639 303.883 60.2431 310.393C59.8223 316.904 65.0237 323.73 64.6614 330.158C64.299 336.587 58.3963 343.016 58.0924 349.316C57.7651 356.014 63.06 362.781 62.7678 369C62.4873 375.896 56.6547 382.219 56.4443 388.239C56.1755 395.556 61.5522 402.265 61.3886 407.876C61.0262 419.962 55.5443 417.46 55.2988 427.185L56.8183 427.232Z" fill="#0046FF"/>
<path opacity="0.3" d="M56.8183 427.232H115.647C114.478 420.043 109.896 421.306 109.277 410.155C108.973 404.544 114.162 397.601 113.718 390.214C113.344 384.148 107.36 377.918 106.892 370.963C106.471 364.698 111.568 357.732 111.088 350.976C110.621 344.582 104.543 338.457 104.005 331.807C103.491 325.331 108.493 318.295 107.897 311.749C107.301 305.203 101.13 299.184 100.475 292.72C99.8205 286.256 104.648 278.939 103.912 272.581C103.117 265.836 96.7581 260.015 95.8932 253.797C94.9347 246.878 99.3997 239.49 98.3828 233.518C97.0971 226.2 90.2827 220.906 88.845 215.505C86.18 205.442 86.5073 195.752 83.363 195.121C79.9967 194.443 79.2253 203.945 76.6772 214.57C75.3914 219.912 68.729 225.312 67.6303 232.641C66.7536 238.567 71.4524 245.779 70.681 252.675C69.9913 258.835 63.7964 264.773 63.1886 271.482C62.6159 277.782 67.6536 284.748 67.1627 291.352C66.6835 297.758 60.6639 303.883 60.2431 310.393C59.8223 316.904 65.0237 323.73 64.6614 330.158C64.299 336.587 58.3963 343.016 58.0924 349.316C57.7651 356.014 63.06 362.781 62.7678 369C62.4873 375.896 56.6547 382.219 56.4443 388.239C56.1755 395.556 61.5522 402.265 61.3886 407.876C61.0262 419.962 55.5443 417.46 55.2988 427.185L56.8183 427.232Z" fill="white"/>
<path d="M82.0771 214.43V424.497" stroke="#263238" stroke-linecap="round" stroke-linejoin="round"/>
<path d="M91.2529 236.451L81.68 244.715L73.8486 234.277" stroke="#263238" stroke-linecap="round" stroke-linejoin="round"/>
<path d="M91.2529 273.013L81.68 281.288L73.8486 270.839" stroke="#263238" stroke-linecap="round" stroke-linejoin="round"/>
<path d="M91.2529 307.401L81.68 315.676L73.8486 305.227" stroke="#263238" stroke-linecap="round" stroke-linejoin="round"/>
<path d="M91.2529 348.322L81.68 356.586L73.8486 346.148" stroke="#263238" stroke-linecap="round" stroke-linejoin="round"/>
<path d="M91.2529 389.676L81.68 397.94L73.8486 387.491" stroke="#263238" stroke-linecap="round" stroke-linejoin="round"/>
<path d="M67.0337 85.517C65.8649 84.3481 63.8661 83.1793 60.383 83.1208C52.5633 82.9338 54.6556 88.4742 52.5633 89.8067C50.4711 91.1392 49.8866 89.0469 47.7827 90.3794C45.6788 91.7119 46.6138 94.3886 44.919 94.7743C43.2242 95.16 40.9098 93.0561 38.8059 94.3886C36.702 95.7211 36.7136 96.8666 35.7552 96.8666C34.7967 96.8666 32.8915 96.1068 31.746 96.8666C30.6005 97.6263 29.2563 98.5848 29.2563 98.5848H49.7814" stroke="#263238" stroke-linecap="round" stroke-linejoin="round"/>
<path d="M69.2081 88.9301L68.612 88.6613C68.519 87.95 68.2802 87.2656 67.9106 86.6509" stroke="#263238" stroke-linecap="round" stroke-linejoin="round"/>
<path d="M52.3999 98.5848H77.5537C77.6884 98.003 77.6075 97.392 77.3259 96.8654C77.0443 96.3387 76.5811 95.9321 76.0225 95.7211C73.9185 94.5522 72.9717 95.5341 72.2003 94.5522C71.4289 93.5704 73.7198 91.6418 70.1665 89.4443" stroke="#263238" stroke-linecap="round" stroke-linejoin="round"/>
<path d="M184.352 98.5848H234.285C234.285 98.5848 235.992 93.4886 229.75 90.0872C223.508 86.6859 220.68 89.5145 218.412 86.6742C216.145 83.8339 224.642 76.4701 207.635 69.1413C207.635 69.1413 206.466 53.2683 183.241 52.6956C173.212 52.4501 168.666 55.3722 166.246 59.1009" stroke="#263238" stroke-linecap="round" stroke-linejoin="round"/>
<path d="M169.11 98.585H177.432" stroke="#263238" stroke-linecap="round" stroke-linejoin="round"/>
<path d="M154.57 98.5847H90.7969C90.7969 98.5847 94.771 95.7561 98.1723 93.4885C101.574 91.2209 107.243 93.4885 110.083 93.4885C112.923 93.4885 112.912 90.0871 119.153 86.113C125.395 82.1389 132.198 88.3806 137.306 87.2819C142.414 86.1831 139.573 78.2116 145.815 74.2374C152.057 70.2633 153.751 76.505 159.993 72.5309C161.735 71.3621 162.506 69.3399 163.219 66.9204" stroke="#263238" stroke-linecap="round" stroke-linejoin="round"/>
<path d="M645.348 98.5848H676.264C676.264 98.5848 677.328 95.4289 673.459 93.325C669.59 91.2211 667.837 92.9743 666.446 91.2094C665.055 89.4444 670.315 84.8976 659.772 80.3273C659.772 80.3273 659.07 70.4973 644.67 70.1466C638.463 69.9946 635.647 71.8064 634.15 74.109" stroke="#263238" stroke-linecap="round" stroke-linejoin="round"/>
<path d="M635.916 98.585H641.058" stroke="#263238" stroke-linecap="round" stroke-linejoin="round"/>
<path d="M632.257 78.9131C632.046 80.2855 631.339 81.533 630.27 82.4197C626.401 84.8859 625.349 81.017 621.48 83.4716C617.611 85.9262 619.376 90.8471 616.22 91.5601C613.065 92.2731 608.845 88.3925 604.976 90.8471C601.107 93.3017 601.119 95.4173 599.366 95.4173C597.612 95.4173 594.094 94.0147 591.99 95.4173C589.886 96.8199 587.42 98.5732 587.42 98.5732H626.916" stroke="#263238" stroke-linecap="round" stroke-linejoin="round"/>
<path d="M483.661 195.448H514.577C514.577 195.448 515.629 192.292 511.771 190.188C507.914 188.084 506.149 189.838 504.758 188.073C503.367 186.308 508.616 181.749 498.084 177.191C498.084 177.191 497.383 167.361 482.983 167.01C476.776 166.858 473.959 168.67 472.463 170.972" stroke="#263238" stroke-linecap="round" stroke-linejoin="round"/>
<path d="M474.228 195.448H479.371" stroke="#263238" stroke-linecap="round" stroke-linejoin="round"/>
<path d="M470.569 175.823C470.351 177.195 469.64 178.442 468.57 179.329C464.713 181.784 463.661 177.927 459.792 180.381C455.923 182.836 457.688 187.757 454.521 188.458C451.353 189.159 447.157 185.302 443.288 187.757C439.419 190.211 439.431 192.327 437.666 192.327C435.901 192.327 432.406 190.924 430.29 192.327C428.175 193.73 425.732 195.483 425.732 195.483H465.216" stroke="#263238" stroke-linecap="round" stroke-linejoin="round"/>
<path d="M227.495 427.232H233.152V404.405C233.266 400.123 235.047 396.056 238.115 393.068C241.184 390.081 245.297 388.409 249.58 388.409C253.863 388.409 257.976 390.081 261.045 393.068C264.113 396.056 265.894 400.123 266.008 404.405V427.232H271.666V404.405C271.533 398.635 269.148 393.147 265.02 389.113C260.893 385.08 255.351 382.821 249.58 382.821C243.809 382.821 238.267 385.08 234.14 389.113C230.013 393.147 227.627 398.635 227.495 404.405V427.232Z" fill="#BDBDBD" stroke="#263238" stroke-miterlimit="10"/>
<path d="M179.361 417.18H216.391L216.391 147.981H179.361L179.361 417.18Z" fill="#919191" stroke="#263238" stroke-miterlimit="10"/>
<path d="M179.361 417.18H195.562L195.562 147.981H179.361L179.361 417.18Z" fill="white" stroke="#263238" stroke-miterlimit="10"/>
<path d="M179.361 166.963H216.391V145.655H179.361V166.963Z" fill="#263238" stroke="#263238" stroke-miterlimit="10"/>
<path d="M179.361 166.963H195.562V145.655H179.361V166.963Z" fill="#263238" stroke="#263238" stroke-miterlimit="10"/>
<path d="M172.056 417.624H179.408L179.408 279.98H172.056L172.056 417.624Z" fill="#BDBDBD" stroke="#263238" stroke-miterlimit="10"/>
<path d="M158.135 417.624H175.539L175.539 279.98H158.135L158.135 417.624Z" fill="white" stroke="#263238" stroke-miterlimit="10"/>
<path d="M130.737 417.624H174.031V323.8H130.737V417.624Z" fill="#0046FF" stroke="#263238" stroke-linecap="round" stroke-linejoin="round"/>
<path d="M130.737 381.413H174.031V323.8H130.737V381.413Z" fill="#263238" stroke="#263238" stroke-miterlimit="10"/>
<path d="M130.737 344.091H174.031V323.788H130.737V344.091Z" fill="#BDBDBD" stroke="#263238" stroke-miterlimit="10"/>
<path d="M130.737 353.127H174.031V343.905H130.737V353.127Z" fill="white" stroke="#263238" stroke-miterlimit="10"/>
<path d="M124.542 417.624H131.894L131.894 279.98H124.542L124.542 417.624Z" fill="#BDBDBD" stroke="#263238" stroke-miterlimit="10"/>
<path d="M110.621 417.624H128.025L128.025 279.98H110.621L110.621 417.624Z" fill="white" stroke="#263238" stroke-miterlimit="10"/>
<path d="M103.912 282.119H184.808V273.726H103.912V282.119Z" fill="#0046FF" stroke="#263238" stroke-linecap="round" stroke-linejoin="round"/>
<path d="M103.912 282.119H123.841V273.726H103.912V282.119Z" fill="#0046FF" stroke="#263238" stroke-linecap="round" stroke-linejoin="round"/>
<path d="M103.912 417.636H184.808V415.181H103.912V417.636Z" fill="white" stroke="#263238" stroke-miterlimit="10"/>
<path d="M103.912 417.636H123.841V415.181H103.912V417.636Z" fill="white" stroke="#263238" stroke-miterlimit="10"/>
<path d="M143.992 338.843H162.646V326.594H143.992V338.843Z" fill="#263238" stroke="#263238" stroke-miterlimit="10"/>
<path d="M147.989 336.225H158.649V329.224H147.989V336.225Z" fill="white" stroke="#263238" stroke-miterlimit="10"/>
<path d="M143.992 328.066H162.646V326.605H143.992V328.066Z" fill="white" stroke="#263238" stroke-miterlimit="10"/>
<path d="M157.41 350.509H169.075V345.553H157.41V350.509Z" fill="white" stroke="#263238" stroke-miterlimit="10"/>
<path d="M157.41 347.89H169.075V345.552H157.41V347.89Z" fill="white" stroke="#263238" stroke-miterlimit="10"/>
<path d="M136.698 350.509H148.363V345.553H136.698V350.509Z" fill="white" stroke="#263238" stroke-miterlimit="10"/>
<path d="M136.698 347.89H148.363V345.552H136.698V347.89Z" fill="white" stroke="#263238" stroke-miterlimit="10"/>
<path d="M114.852 363.682H123.841V330.93H114.852V363.682Z" fill="white" stroke="#263238" stroke-miterlimit="10"/>
<path d="M114.864 363.682H121.55V330.93H114.864V363.682Z" fill="white" stroke="#263238" stroke-miterlimit="10"/>
<path d="M116.278 362.209H120.124V332.415H116.278V362.209Z" fill="white" stroke="#263238" stroke-miterlimit="10"/>
<path d="M125.208 353.267H127.686V349.457H125.208V353.267Z" fill="white" stroke="#263238" stroke-miterlimit="10"/>
<path d="M92.3166 427.209H310.495V417.367H92.3166V427.209Z" fill="#919191" stroke="#263238" stroke-miterlimit="10"/>
<path d="M92.3048 427.209H119.2V417.367H92.3048V427.209Z" fill="#BDBDBD" stroke="#263238" stroke-miterlimit="10"/>
<path d="M568.566 427.232H574.224V404.404C574.224 400.049 575.954 395.872 579.034 392.792C582.114 389.712 586.291 387.982 590.646 387.982C595.002 387.982 599.179 389.712 602.258 392.792C605.338 395.872 607.069 400.049 607.069 404.404V427.232H612.726V404.404C612.726 398.549 610.4 392.932 606.259 388.792C602.118 384.651 596.502 382.325 590.646 382.325C584.79 382.325 579.174 384.651 575.033 388.792C570.893 392.932 568.566 398.549 568.566 404.404V427.232Z" fill="#BDBDBD" stroke="#263238" stroke-miterlimit="10"/>
<path d="M520.421 417.18H557.451V147.981H520.421V417.18Z" fill="#919191" stroke="#263238" stroke-miterlimit="10"/>
<path d="M520.421 417.18H536.622V147.981H520.421V417.18Z" fill="white" stroke="#263238" stroke-miterlimit="10"/>
<path d="M520.421 169.289H557.451V147.981H520.421V169.289Z" fill="#263238" stroke="#263238" stroke-miterlimit="10"/>
<path d="M520.421 169.289H536.622V147.981H520.421V169.289Z" fill="#263238" stroke="#263238" stroke-miterlimit="10"/>
<path d="M513.116 417.624H520.468V279.98H513.116V417.624Z" fill="#BDBDBD" stroke="#263238" stroke-miterlimit="10"/>
<path d="M499.195 417.624H516.599V279.98H499.195V417.624Z" fill="white" stroke="#263238" stroke-miterlimit="10"/>
<path d="M471.797 417.624H515.091V323.8H471.797V417.624Z" fill="#0046FF" stroke="#263238" stroke-linecap="round" stroke-linejoin="round"/>
<path d="M471.797 381.413H515.091V323.8H471.797V381.413Z" fill="#263238" stroke="#263238" stroke-miterlimit="10"/>
<path d="M471.797 344.091H515.091V323.788H471.797V344.091Z" fill="#BDBDBD" stroke="#263238" stroke-miterlimit="10"/>
<path d="M471.797 353.127H515.091V343.905H471.797V353.127Z" fill="white" stroke="#263238" stroke-miterlimit="10"/>
<path d="M465.602 417.624H472.954V279.98H465.602V417.624Z" fill="#BDBDBD" stroke="#263238" stroke-miterlimit="10"/>
<path d="M451.681 417.624H469.085V279.98H451.681V417.624Z" fill="white" stroke="#263238" stroke-miterlimit="10"/>
<path d="M444.972 282.119H525.868V273.726H444.972V282.119Z" fill="#0046FF" stroke="#263238" stroke-linecap="round" stroke-linejoin="round"/>
<path d="M444.972 282.119H464.901V273.726H444.972V282.119Z" fill="#0046FF" stroke="#263238" stroke-linecap="round" stroke-linejoin="round"/>
<path d="M444.972 417.636H525.868V415.181H444.972V417.636Z" fill="white" stroke="#263238" stroke-miterlimit="10"/>
<path d="M444.972 417.636H464.901V415.181H444.972V417.636Z" fill="white" stroke="#263238" stroke-miterlimit="10"/>
<path d="M485.063 338.843H503.718V326.594H485.063V338.843Z" fill="#263238" stroke="#263238" stroke-miterlimit="10"/>
<path d="M489.061 336.225H499.721V329.224H489.061V336.225Z" fill="white" stroke="#263238" stroke-miterlimit="10"/>
<path d="M485.063 328.066H503.718V326.605H485.063V328.066Z" fill="white" stroke="#263238" stroke-miterlimit="10"/>
<path d="M498.459 350.509H510.124V345.553H498.459V350.509Z" fill="white" stroke="#263238" stroke-miterlimit="10"/>
<path d="M498.459 347.89H510.124V345.552H498.459V347.89Z" fill="white" stroke="#263238" stroke-miterlimit="10"/>
<path d="M477.758 350.509H489.423V345.553H477.758V350.509Z" fill="white" stroke="#263238" stroke-miterlimit="10"/>
<path d="M477.758 347.89H489.423V345.552H477.758V347.89Z" fill="white" stroke="#263238" stroke-miterlimit="10"/>
<path d="M455.912 363.682H464.901V330.93H455.912V363.682Z" fill="white" stroke="#263238" stroke-miterlimit="10"/>
<path d="M455.924 363.682H462.61V330.93H455.924V363.682Z" fill="white" stroke="#263238" stroke-miterlimit="10"/>
<path d="M457.338 362.209H461.184V332.415H457.338V362.209Z" fill="white" stroke="#263238" stroke-miterlimit="10"/>
<path d="M460.845 332.461C456.707 335.115 454.358 342.023 454.252 342.338L455.725 342.829C455.725 342.759 457.666 337.113 460.845 334.39V332.461Z" fill="white" stroke="#263238" stroke-miterlimit="10"/>
<path d="M459.384 336.377C459.419 336.375 459.453 336.367 459.484 336.352C459.516 336.337 459.544 336.315 459.567 336.289C459.59 336.263 459.607 336.232 459.618 336.199C459.629 336.166 459.633 336.131 459.629 336.096L459.489 333.63C459.488 333.596 459.48 333.563 459.465 333.532C459.451 333.502 459.431 333.474 459.406 333.452C459.381 333.429 459.351 333.411 459.32 333.4C459.288 333.388 459.254 333.383 459.22 333.385C459.187 333.386 459.153 333.394 459.123 333.409C459.092 333.423 459.065 333.443 459.042 333.468C459.019 333.493 459.001 333.522 458.99 333.554C458.978 333.586 458.973 333.62 458.975 333.653L459.115 336.131C459.115 336.166 459.122 336.2 459.136 336.231C459.15 336.262 459.17 336.291 459.195 336.314C459.22 336.337 459.25 336.354 459.283 336.365C459.315 336.376 459.35 336.38 459.384 336.377Z" fill="white" stroke="#263238" stroke-width="0.5" stroke-miterlimit="10"/>
<path d="M457.596 338.575C457.629 338.575 457.663 338.568 457.694 338.555C457.725 338.542 457.753 338.523 457.777 338.499C457.801 338.476 457.82 338.447 457.833 338.416C457.846 338.385 457.853 338.351 457.853 338.318V335.84C457.853 335.806 457.846 335.772 457.833 335.741C457.82 335.71 457.801 335.682 457.777 335.658C457.753 335.634 457.725 335.615 457.694 335.602C457.663 335.589 457.629 335.583 457.596 335.583C457.562 335.583 457.528 335.589 457.497 335.602C457.466 335.615 457.438 335.634 457.414 335.658C457.39 335.682 457.371 335.71 457.358 335.741C457.345 335.772 457.338 335.806 457.338 335.84V338.318C457.338 338.351 457.345 338.385 457.358 338.416C457.371 338.447 457.39 338.476 457.414 338.499C457.438 338.523 457.466 338.542 457.497 338.555C457.528 338.568 457.562 338.575 457.596 338.575Z" fill="white" stroke="#263238" stroke-width="0.5" stroke-miterlimit="10"/>
<path d="M456.357 341.322C456.424 341.307 456.483 341.268 456.522 341.212C456.562 341.155 456.578 341.086 456.567 341.018L456.006 338.399C456.001 338.366 455.988 338.333 455.97 338.305C455.951 338.276 455.927 338.252 455.898 338.233C455.869 338.214 455.837 338.202 455.803 338.196C455.77 338.191 455.735 338.192 455.702 338.201C455.636 338.215 455.577 338.255 455.54 338.312C455.503 338.369 455.49 338.438 455.503 338.505L456.053 341.123C456.069 341.188 456.11 341.244 456.166 341.281C456.222 341.318 456.29 341.332 456.357 341.322Z" fill="white" stroke="#263238" stroke-width="0.5" stroke-miterlimit="10"/>
<path d="M455.667 349.597C455.667 349.597 454.977 356.201 455.117 356.75C455.258 357.299 458.285 357.989 458.285 357.989" stroke="#263238" stroke-miterlimit="10"/>
<path d="M451.915 361.017L456.859 359.848C457.478 359.689 458.021 359.315 458.39 358.792C458.758 358.27 458.928 357.633 458.869 356.996L458.133 349.901L456.578 350.065L457.326 357.159C457.337 357.419 457.262 357.674 457.112 357.886C456.961 358.098 456.745 358.253 456.497 358.328L451.552 359.497L451.915 361.017Z" fill="black"/>
<path d="M453.814 359.984L451.758 360.219L452.209 364.167L454.264 363.933L453.814 359.984Z" fill="black" stroke="#263238" stroke-miterlimit="10"/>
<path d="M452.608 349.439L450.553 349.674L451.757 360.23L453.813 359.996L452.608 349.439Z" fill="white" stroke="#263238" stroke-miterlimit="10"/>
<path d="M453.972 341.181L457.034 342.584L456.649 344.232L458.94 345.763L458.308 349.959L450.535 352.005L448.759 349.959L450.15 343.086L453.084 342.584L453.972 341.181Z" fill="white" stroke="#263238" stroke-miterlimit="10"/>
<path d="M451.681 344.103L454.989 343.472L455.737 341.988L453.972 341.181L453.084 342.584L450.15 343.086L448.759 349.959L450.161 351.572L451.681 344.103Z" fill="white" stroke="#263238" stroke-miterlimit="10"/>
<path d="M446.97 300.33C448.431 287.554 453.107 284.842 456.824 284.842H456.941C458.114 284.851 459.273 285.107 460.34 285.595C461.408 286.082 462.36 286.79 463.136 287.671C469.447 294.474 468.571 311.527 468.512 312.638V351.525C468.528 351.678 468.512 351.833 468.464 351.979C468.416 352.126 468.338 352.26 468.235 352.374C468.132 352.489 468.007 352.58 467.866 352.643C467.725 352.705 467.573 352.737 467.42 352.737C467.266 352.737 467.114 352.705 466.973 352.643C466.832 352.58 466.707 352.489 466.604 352.374C466.501 352.26 466.423 352.126 466.375 351.979C466.327 351.833 466.311 351.678 466.327 351.525V312.544C466.327 312.369 467.297 295.362 461.534 289.167C460.953 288.498 460.235 287.961 459.428 287.594C458.622 287.227 457.745 287.038 456.859 287.04H456.789C451.716 287.04 449.776 294.392 449.086 300.587C448.411 306.721 448.75 312.925 450.091 318.949L451.751 326.582V336.868L447.952 319.417C446.571 313.153 446.239 306.703 446.97 300.33Z" fill="#263238"/>
<path d="M466.268 353.267H468.746V349.457H466.268V353.267Z" fill="white" stroke="#263238" stroke-miterlimit="10"/>
<path d="M447.719 395.533C450.057 390.998 452.803 385.855 452.803 379.73C452.803 370.379 452.044 362.781 452.044 362.7L454.218 362.489C454.218 362.559 454.989 370.262 454.989 379.73C454.989 386.404 452.02 392.026 449.647 396.55C447.777 400.115 446.141 403.2 446.807 405.316C446.913 405.835 447.135 406.324 447.457 406.745C447.779 407.166 448.192 407.509 448.666 407.747C449.727 408.055 450.865 407.955 451.857 407.467V409.805C451.175 410.019 450.467 410.133 449.753 410.144C449.105 410.15 448.462 410.031 447.859 409.793C447.079 409.442 446.39 408.916 445.846 408.255C445.303 407.594 444.92 406.816 444.727 405.982C443.791 402.99 445.615 399.53 447.719 395.533Z" fill="black"/>
<path d="M382.473 427.209H600.652V417.367H382.473V427.209Z" fill="#919191" stroke="#263238" stroke-miterlimit="10"/>
<path d="M382.473 427.209H409.369V417.367H382.473V427.209Z" fill="#BDBDBD" stroke="#263238" stroke-miterlimit="10"/>
<path d="M645.419 111.723H218.81V156.455H645.419V111.723Z" fill="#263238" stroke="#263238" stroke-miterlimit="10"/>
<path d="M57.6017 156.455L408.387 156.455V111.723L57.6017 111.723V156.455Z" fill="#0046FF" stroke="#263238" stroke-linecap="round" stroke-linejoin="round"/>
<path d="M408.34 156.455V113.664L309.139 138.525C295.183 142.028 280.484 141.126 267.061 135.942L245.367 127.585C235.372 123.731 224.462 122.918 214.006 125.247L73.7437 156.42L408.34 156.455Z" fill="#919191" stroke="#263238" stroke-miterlimit="10"/>
<path d="M228.009 417.659C228.009 417.659 225.589 422.72 226.021 423.772C226.454 424.824 229.271 424.777 229.271 424.777L229.388 417.881C229.388 417.881 228.757 416.046 228.009 417.659Z" fill="white" stroke="#263238" stroke-linecap="round" stroke-linejoin="round"/>
<path d="M234.636 421.388C234.636 421.388 237.687 423.269 238.552 423.725C239.416 424.181 243.063 424.953 243.133 425.724C243.204 426.495 239.627 426.998 237.792 427.255C234.378 427.155 230.985 426.693 227.669 425.876C227.307 425.595 228.663 420.967 228.663 420.967L234.636 421.388Z" fill="white" stroke="#263238" stroke-linecap="round" stroke-linejoin="round"/>
<path d="M246.594 355.137C246.594 355.137 245.004 382.36 245.121 385.937C245.238 389.513 243.952 391.991 243.847 393.008C243.742 394.025 235.209 415.111 235.209 415.111L233.584 419.974L230.253 414.877L233.759 390.998L230.253 355.745L239.148 354.576L246.594 355.137Z" fill="#525252" stroke="#263238" stroke-linecap="round" stroke-linejoin="round"/>
<path d="M218.681 355.932C218.681 355.932 220.645 367.702 222.702 372.705C224.759 377.707 227.377 391.184 227.377 391.184C227.377 391.184 225.741 397.964 226.816 400.722C227.892 403.481 227.985 418.559 227.985 418.559C227.857 419.441 227.795 420.332 227.798 421.224C227.88 421.75 227.95 422.638 227.95 422.638C227.95 422.638 230.533 422.194 231.457 422.124C232.38 422.054 235.454 421.528 235.454 421.528C235.454 421.528 235.594 419.623 235.805 418.489C236.015 417.355 235.256 415.508 235.279 415.122C235.302 414.737 236.553 404.743 236.553 404.743C236.553 404.743 238.423 391.208 238.61 388.671C238.797 386.135 235.898 359.088 235.898 359.088C235.898 359.088 227.857 353.781 224.818 353.43C221.779 353.08 218.681 355.932 218.681 355.932Z" fill="#525252" stroke="#263238" stroke-linecap="round" stroke-linejoin="round"/>
<path d="M227.833 307.518C227.833 307.518 216.624 313.806 216.577 314.414C216.531 315.022 218.81 339.358 218.81 339.358C218.81 339.358 217.407 353.232 217.302 354.74C217.247 355.823 217.27 356.909 217.372 357.989L223.778 355.008C223.778 355.008 235.08 359.988 236.635 360.303L239.639 360.923L241.158 358.188L241.31 361.694C242.614 360.723 243.816 359.623 244.899 358.41L247.353 355.242L246.255 339.743C246.255 339.743 245.086 319.44 245.214 318.33C245.343 317.219 243.87 311.223 242.877 310.428C241.096 309.51 239.247 308.729 237.348 308.091L229.505 306.524L227.833 307.518Z" fill="white" stroke="#263238" stroke-linecap="round" stroke-linejoin="round"/>
<path d="M226.173 295.42C226.416 296.524 226.81 297.59 227.342 298.588C227.985 299.476 229.773 302.094 229.773 302.094L233.748 299.756L233.011 292.813L226.173 295.42Z" fill="#263238" stroke="#263238" stroke-linecap="round" stroke-linejoin="round"/>
<path d="M229.166 298.892L228.5 306.022L236.483 311.293L237.885 305.917L231.188 297.618L229.166 298.892Z" fill="white" stroke="#263238" stroke-linecap="round" stroke-linejoin="round"/>
<path d="M233.899 304.643L236.798 308.652L237.57 306.536L233.899 304.643Z" fill="#263238"/>
<path d="M243.297 291.493L243.075 295.934L242.491 297.01L242.596 301.182L241.836 301.837C241.836 301.837 240.667 305.344 240.445 305.694C239.896 306.234 239.279 306.702 238.61 307.085C238.201 307.249 234.11 304.923 233.467 303.964C232.824 303.006 232.1 301.837 232.1 301.837L232.228 298.705L231.936 292.86L243.297 291.493Z" fill="white" stroke="#263238" stroke-linecap="round" stroke-linejoin="round"/>
<path d="M239.826 297.326V298.495C239.552 298.627 239.248 298.682 238.946 298.655C238.643 298.629 238.353 298.521 238.107 298.343" stroke="#263238" stroke-linecap="round" stroke-linejoin="round"/>
<path d="M240.363 303.392C240.363 303.392 239.978 303.474 239.125 302.924" stroke="#263238" stroke-linecap="round" stroke-linejoin="round"/>
<path d="M237.243 293.971L243.029 294.298L243.297 291.493L236.682 293.304L237.243 293.971Z" fill="#263238"/>
<path d="M240.784 296.788L237.558 296.449" stroke="#263238" stroke-linecap="round" stroke-linejoin="round"/>
<path d="M241.836 301.837L239.697 301.989" stroke="#263238" stroke-linecap="round" stroke-linejoin="round"/>
<path d="M243.998 291.282C243.998 291.282 243.379 287.086 241.953 285.765C240.527 284.445 233.081 283.369 232.345 283.72C231.608 284.071 230.288 284.737 230.288 284.737C229.38 285.242 228.523 285.833 227.728 286.502C227.135 286.929 226.648 287.486 226.304 288.13C225.959 288.774 225.767 289.489 225.741 290.219C225.73 291.962 225.875 293.703 226.173 295.42L243.998 291.282Z" fill="#0046FF" stroke="#263238" stroke-linecap="round" stroke-linejoin="round"/>
<path d="M228.008 303.672L234.683 306.7L236.74 312.018L226.723 307.331L228.008 303.672Z" fill="white" stroke="#263238" stroke-linecap="round" stroke-linejoin="round"/>
<path d="M232.59 297.688C232.59 297.688 231.831 294.743 230.253 295.759C228.675 296.776 230.51 299.991 230.767 300.435C231.024 300.879 231.936 300.949 232.438 299.921" fill="white"/>
<path d="M232.59 297.688C232.59 297.688 231.831 294.743 230.253 295.759C228.675 296.776 230.51 299.991 230.767 300.435C231.024 300.879 231.936 300.949 232.438 299.921" stroke="#263238" stroke-linecap="round" stroke-linejoin="round"/>
<path d="M234.391 293.456C234.391 293.456 238.189 295.303 240.925 295.128C244.01 294.917 250.439 294.169 248.873 292.942C247.049 292.334 245.186 291.85 243.297 291.493C243.297 291.493 236.693 292.428 234.391 293.456Z" fill="#0046FF" stroke="#263238" stroke-linecap="round" stroke-linejoin="round"/>
<path d="M277.077 349.737C273.454 346.406 266.172 345.915 265.844 345.892L265.751 347.446C265.821 347.446 271.771 347.844 275.219 350.228L277.077 349.737Z" fill="white" stroke="#263238" stroke-miterlimit="10"/>
<path d="M272.928 349.316C272.938 349.348 272.955 349.378 272.977 349.404C273 349.43 273.027 349.451 273.057 349.466C273.088 349.481 273.121 349.49 273.155 349.493C273.189 349.495 273.223 349.491 273.255 349.48L275.593 348.72C275.656 348.696 275.709 348.649 275.739 348.588C275.769 348.528 275.776 348.458 275.756 348.393C275.735 348.327 275.689 348.272 275.628 348.239C275.567 348.207 275.496 348.199 275.429 348.217L273.091 348.989C273.028 349.013 272.976 349.06 272.945 349.12C272.915 349.181 272.909 349.251 272.928 349.316Z" fill="white" stroke="#263238" stroke-width="0.5" stroke-miterlimit="10"/>
<path d="M270.333 348.147C270.352 348.213 270.395 348.268 270.454 348.303C270.512 348.338 270.582 348.349 270.648 348.334L273.045 347.703C273.11 347.684 273.166 347.641 273.2 347.582C273.235 347.524 273.246 347.454 273.232 347.387C273.223 347.354 273.209 347.323 273.188 347.296C273.168 347.268 273.142 347.245 273.113 347.228C273.084 347.21 273.051 347.199 273.017 347.194C272.983 347.19 272.949 347.192 272.916 347.2L270.578 347.832C270.541 347.834 270.504 347.845 270.471 347.863C270.438 347.88 270.408 347.905 270.385 347.935C270.362 347.965 270.345 347.999 270.336 348.035C270.327 348.072 270.326 348.11 270.333 348.147Z" fill="white" stroke="#263238" stroke-width="0.5" stroke-miterlimit="10"/>
<path d="M267.364 347.656C267.364 347.656 267.364 347.656 267.364 347.715C267.38 347.745 267.402 347.771 267.428 347.793C267.454 347.815 267.485 347.831 267.517 347.84C267.55 347.85 267.584 347.853 267.618 347.85C267.652 347.846 267.685 347.836 267.715 347.82L270.052 346.651C270.114 346.62 270.162 346.566 270.183 346.5C270.205 346.434 270.2 346.362 270.169 346.3C270.138 346.238 270.084 346.191 270.018 346.169C269.952 346.147 269.881 346.152 269.819 346.183L267.481 347.352C267.429 347.382 267.39 347.428 267.368 347.483C267.347 347.539 267.345 347.6 267.364 347.656Z" fill="white" stroke="#263238" stroke-width="0.5" stroke-miterlimit="10"/>
<path d="M259.194 349.118C259.194 349.118 252.636 350.146 252.181 350.427C251.725 350.707 251.795 353.793 251.795 353.793" stroke="#263238" stroke-miterlimit="10"/>
<path d="M247.189 348.416L249.609 352.893C249.924 353.447 250.428 353.869 251.029 354.084C251.629 354.298 252.287 354.29 252.882 354.062L259.544 351.525L258.995 350.076L252.332 352.6C252.085 352.696 251.812 352.699 251.563 352.609C251.314 352.518 251.105 352.341 250.977 352.11L248.557 347.633L247.189 348.416Z" fill="black"/>
<path d="M247.851 348.089L244.15 349.537L244.904 351.463L248.605 350.015L247.851 348.089Z" fill="black" stroke="#263238" stroke-miterlimit="10"/>
<path d="M257.755 344.205L247.86 348.076L248.614 350.003L258.509 346.131L257.755 344.205Z" fill="white" stroke="#263238" stroke-miterlimit="10"/>
<path d="M266.896 345.318L266.324 348.638L264.629 348.696L263.741 351.303L259.509 351.759L255.547 344.781L257.066 342.537L264.068 342.116L265.307 344.816L266.896 345.318Z" fill="#0046FF" stroke="#263238" stroke-linecap="round" stroke-linejoin="round"/>
<path d="M263.472 343.857L264.933 346.896L266.569 347.235L266.896 345.318L265.307 344.816L264.068 342.116L257.066 342.537L255.862 344.313L263.472 343.857Z" fill="#0046FF" stroke="#263238" stroke-linecap="round" stroke-linejoin="round"/>
<path d="M224.315 334.811L226.711 338.399L248.265 348.217L251.853 351.572L255.442 350.368L258.562 349.889L254.729 343.425L247.073 343.191L232.707 333.852L230.545 331.21L224.315 334.811Z" fill="white" stroke="#263238" stroke-linecap="round" stroke-linejoin="round"/>
<path d="M216.577 314.414L221.685 337.92L232.941 331.935L225.519 315.174" fill="white"/>
<path d="M216.577 314.414L221.685 337.92L232.941 331.935L225.519 315.174" stroke="#263238" stroke-linecap="round" stroke-linejoin="round"/>
<path d="M244.174 349.503C234.708 351.822 226.102 356.798 219.371 363.845C209.751 374.365 199.944 384.686 189.764 394.656C178.145 406.029 168.853 413.638 153.775 420.266C143.045 424.941 127.171 429.617 115.763 424.941C101.363 418.957 105.115 398.56 104.811 386.252C104.203 361.776 104.215 337.23 104.963 312.766C105.057 309.75 105.162 306.735 105.337 303.731C105.594 299.196 105.945 290.312 107.839 286.198C109.311 282.995 112.514 281.324 114.524 281.406C121.374 281.686 123.396 289.67 124.132 296.729C124.869 303.789 126.131 346.756 126.131 346.756" stroke="#263238" stroke-width="3" stroke-linejoin="round"/>
<path d="M211.06 346.756H210.557C210.049 346.756 209.548 346.635 209.096 346.403C208.643 346.172 208.252 345.837 207.955 345.425C207.657 345.013 207.461 344.537 207.383 344.035C207.305 343.532 207.348 343.019 207.506 342.536C208.149 340.561 209.236 338.562 211.013 338.258C214.8 337.627 225.203 340.771 225.203 342.934C225.203 345.096 225.203 346.078 223.941 346.078H216.062L209.762 353.021L209.622 352.904C209.297 352.631 209.037 352.29 208.858 351.906C208.679 351.521 208.586 351.102 208.586 350.678C208.586 350.253 208.679 349.834 208.858 349.45C209.037 349.065 209.297 348.724 209.622 348.451C210.199 347.977 210.686 347.403 211.06 346.756Z" fill="#263238" stroke="#263238" stroke-linecap="round" stroke-linejoin="round"/>
<path d="M282.278 405.374H386.891C386.891 405.374 402.016 395.287 398.86 368.812C395.704 342.338 378.697 359.999 372.397 377.637H325.76C325.76 377.637 315.673 357.475 299.297 359.999C282.921 362.524 282.278 405.374 282.278 405.374Z" fill="#263238" stroke="#263238" stroke-linecap="round" stroke-linejoin="round"/>
<path d="M307.982 400.126C308.13 393.114 306.109 386.228 302.196 380.408V373.044H289.584C279.415 373.044 271.174 385.165 271.174 400.126C271.174 415.088 279.415 427.232 289.584 427.232H302.196V419.868C306.114 414.042 308.135 407.146 307.982 400.126Z" fill="#263238" stroke="#263238" stroke-linecap="round" stroke-linejoin="round"/>
<path d="M302.196 427.209C312.356 427.209 320.593 415.083 320.593 400.126C320.593 385.169 312.356 373.044 302.196 373.044C292.035 373.044 283.798 385.169 283.798 400.126C283.798 415.083 292.035 427.209 302.196 427.209Z" fill="#263238"/>
<path opacity="0.2" d="M302.196 427.209C312.356 427.209 320.593 415.083 320.593 400.126C320.593 385.169 312.356 373.044 302.196 373.044C292.035 373.044 283.798 385.169 283.798 400.126C283.798 415.083 292.035 427.209 302.196 427.209Z" fill="white" stroke="#263238" stroke-linecap="round" stroke-linejoin="round"/>
<path d="M302.196 427.209C312.356 427.209 320.593 415.083 320.593 400.126C320.593 385.169 312.356 373.044 302.196 373.044C292.035 373.044 283.798 385.169 283.798 400.126C283.798 415.083 292.035 427.209 302.196 427.209Z" stroke="#263238" stroke-linecap="round" stroke-linejoin="round"/>
<path d="M194.298 373.044H182.388C172.78 373.044 164.995 385.165 164.995 400.126C164.995 415.088 172.78 427.232 182.388 427.232H194.298C203.906 427.232 211.691 415.111 211.691 400.15C211.691 385.188 203.906 373.044 194.298 373.044Z" fill="#263238" stroke="#263238" stroke-linecap="round" stroke-linejoin="round"/>
<path d="M302.195 421.738C310.303 421.738 316.876 412.062 316.876 400.126C316.876 388.19 310.303 378.514 302.195 378.514C294.087 378.514 287.515 388.19 287.515 400.126C287.515 412.062 294.087 421.738 302.195 421.738Z" fill="white" stroke="#263238" stroke-linecap="round" stroke-linejoin="round"/>
<path d="M394.161 400.126C394.304 393.37 393.05 386.657 390.479 380.408V373.044H379.34C372.864 373.044 367.651 385.165 367.651 400.126C367.651 415.088 372.888 427.209 379.34 427.209H390.479V419.845C393.05 413.595 394.304 406.883 394.161 400.126Z" fill="#263238" stroke="#263238" stroke-linecap="round" stroke-linejoin="round"/>
<path d="M390.479 427.209C396.947 427.209 402.191 415.083 402.191 400.126C402.191 385.169 396.947 373.044 390.479 373.044C384.011 373.044 378.767 385.169 378.767 400.126C378.767 415.083 384.011 427.209 390.479 427.209Z" fill="#263238"/>
<path opacity="0.2" d="M390.479 427.209C396.947 427.209 402.191 415.083 402.191 400.126C402.191 385.169 396.947 373.044 390.479 373.044C384.011 373.044 378.767 385.169 378.767 400.126C378.767 415.083 384.011 427.209 390.479 427.209Z" fill="white" stroke="#263238" stroke-linecap="round" stroke-linejoin="round"/>
<path d="M390.479 427.209C396.947 427.209 402.191 415.083 402.191 400.126C402.191 385.169 396.947 373.044 390.479 373.044C384.011 373.044 378.767 385.169 378.767 400.126C378.767 415.083 384.011 427.209 390.479 427.209Z" stroke="#263238" stroke-linecap="round" stroke-linejoin="round"/>
<path d="M399.818 400.126C399.818 412.06 395.634 421.738 390.468 421.738C385.301 421.738 381.117 412.06 381.117 400.126C381.117 388.192 385.301 378.514 390.468 378.514C395.634 378.514 399.818 388.192 399.818 400.126Z" fill="white" stroke="#263238" stroke-linecap="round" stroke-linejoin="round"/>
<path d="M286.685 406.742C286.685 385.165 294.189 367.667 303.435 367.667C312.68 367.667 320.184 385.2 320.184 406.742C320.184 407.911 320.184 409.08 320.114 410.248H379.784C379.784 409.08 379.726 407.911 379.726 406.742C379.726 385.153 385.196 367.62 391.975 367.62C396.475 367.62 400.403 375.44 402.495 387.058V355.23C402.497 353.777 401.989 352.37 401.06 351.253C400.131 350.136 398.839 349.38 397.41 349.117L397.118 349.059C392.992 348.229 385.547 340.374 373.963 330.451C362.38 320.527 352.047 319.697 352.047 319.697H247.552C245.577 319.698 243.658 320.351 242.093 321.556L206.466 349.059C206.466 349.059 174.568 355.254 167.555 362.29C160.542 369.327 161.349 410.213 161.349 410.213H286.778C286.708 409.103 286.685 407.934 286.685 406.742Z" fill="white" stroke="#263238" stroke-linecap="round" stroke-linejoin="round"/>
<path d="M326.391 319.697H247.552C245.577 319.698 243.658 320.351 242.093 321.556L206.466 349.059H307.362L326.391 319.697Z" fill="white" stroke="#263238" stroke-linecap="round" stroke-linejoin="round"/>
<path d="M285.095 360.116C279.415 360.186 269.491 360.56 265.225 362.29C261.666 363.693 258.213 365.349 254.892 367.246H275.09L285.095 360.116Z" fill="#263238" stroke="#263238" stroke-linecap="round" stroke-linejoin="round"/>
<path d="M276.352 373.465V369.748H254.845L258.738 373.336C258.675 373.373 258.617 373.416 258.562 373.465H276.352Z" fill="#263238" stroke="#263238" stroke-linecap="round" stroke-linejoin="round"/>
<path d="M278.421 368.076V373.464C279.255 373.39 280.062 373.125 280.777 372.689C281.493 372.253 282.098 371.659 282.547 370.951C284.616 367.644 289.268 360.093 289.268 360.093L278.421 368.076Z" fill="#263238" stroke="#263238" stroke-linecap="round" stroke-linejoin="round"/>
<path d="M169.589 373.324L173.481 369.736H164.306C164.025 370.905 163.756 372.144 163.522 373.453H169.764C169.71 373.405 169.651 373.362 169.589 373.324Z" fill="#263238" stroke="#263238" stroke-linecap="round" stroke-linejoin="round"/>
<path d="M166.515 363.716C165.889 364.828 165.384 366.004 165.007 367.223H173.481C171.222 365.933 168.897 364.762 166.515 363.716Z" fill="#263238" stroke="#263238" stroke-linecap="round" stroke-linejoin="round"/>
<path d="M307.362 349.059H368.598C368.598 349.059 377.283 346.16 374.805 335.407C373.963 331.76 356.606 323.414 354.128 323.414H324.322L307.362 349.059Z" fill="#263238"/>
<path opacity="0.2" d="M307.362 349.059H368.598C368.598 349.059 377.283 346.16 374.805 335.407C373.963 331.76 356.606 323.414 354.128 323.414H324.322L307.362 349.059Z" fill="white" stroke="#263238" stroke-linecap="round" stroke-linejoin="round"/>
<path d="M307.362 349.059H368.598C368.598 349.059 377.283 346.16 374.805 335.407C373.963 331.76 356.606 323.414 354.128 323.414H324.322L307.362 349.059Z" stroke="#263238" stroke-linecap="round" stroke-linejoin="round"/>
<path d="M239.685 323.414L206.455 349.059H307.362L323.971 323.414H239.685Z" fill="#263238" stroke="#263238" stroke-linecap="round" stroke-linejoin="round"/>
<path d="M175.036 368.076V376.761L181.231 381.308H231.269L242.853 376.352V368.076H175.036Z" fill="#263238" stroke="#263238" stroke-linecap="round" stroke-linejoin="round"/>
<path opacity="0.3" d="M177.35 368.076H175.036V370.39H177.35V368.076Z" fill="white" stroke="#263238" stroke-linecap="round" stroke-linejoin="round"/>
<path opacity="0.3" d="M179.898 370.636H177.584V372.95H179.898V370.636Z" fill="white" stroke="#263238" stroke-linecap="round" stroke-linejoin="round"/>
<path opacity="0.3" d="M182.458 373.196H180.144V375.51H182.458V373.196Z" fill="white" stroke="#263238" stroke-linecap="round" stroke-linejoin="round"/>
<path opacity="0.3" d="M185.018 375.744H182.704V378.058H185.018V375.744Z" fill="white" stroke="#263238" stroke-linecap="round" stroke-linejoin="round"/>
<path opacity="0.3" d="M242.397 368.076H240.083V370.39H242.397V368.076Z" fill="white" stroke="#263238" stroke-linecap="round" stroke-linejoin="round"/>
<path opacity="0.3" d="M239.837 370.636H237.523V372.95H239.837V370.636Z" fill="white" stroke="#263238" stroke-linecap="round" stroke-linejoin="round"/>
<path opacity="0.3" d="M237.277 373.196H234.963V375.51H237.277V373.196Z" fill="white" stroke="#263238" stroke-linecap="round" stroke-linejoin="round"/>
<path opacity="0.3" d="M234.729 375.744H232.415V378.058H234.729V375.744Z" fill="white" stroke="#263238" stroke-linecap="round" stroke-linejoin="round"/>
<path opacity="0.3" d="M188.571 375.744H186.257V378.058H188.571V375.744Z" fill="white" stroke="#263238" stroke-linecap="round" stroke-linejoin="round"/>
<path opacity="0.3" d="M192.113 375.744H189.798V378.058H192.113V375.744Z" fill="white" stroke="#263238" stroke-linecap="round" stroke-linejoin="round"/>
<path opacity="0.3" d="M195.666 375.744H193.352V378.058H195.666V375.744Z" fill="white" stroke="#263238" stroke-linecap="round" stroke-linejoin="round"/>
<path opacity="0.3" d="M199.22 375.744H196.905V378.058H199.22V375.744Z" fill="white" stroke="#263238" stroke-linecap="round" stroke-linejoin="round"/>
<path opacity="0.3" d="M202.773 375.744H200.458V378.058H202.773V375.744Z" fill="white" stroke="#263238" stroke-linecap="round" stroke-linejoin="round"/>
<path opacity="0.3" d="M206.314 375.744H204V378.058H206.314V375.744Z" fill="white" stroke="#263238" stroke-linecap="round" stroke-linejoin="round"/>
<path opacity="0.3" d="M209.868 375.744H207.553V378.058H209.868V375.744Z" fill="white" stroke="#263238" stroke-linecap="round" stroke-linejoin="round"/>
<path opacity="0.3" d="M213.421 375.744H211.106V378.058H213.421V375.744Z" fill="white" stroke="#263238" stroke-linecap="round" stroke-linejoin="round"/>
<path opacity="0.3" d="M216.974 375.744H214.66V378.058H216.974V375.744Z" fill="white" stroke="#263238" stroke-linecap="round" stroke-linejoin="round"/>
<path opacity="0.3" d="M220.528 375.744H218.213V378.058H220.528V375.744Z" fill="white" stroke="#263238" stroke-linecap="round" stroke-linejoin="round"/>
<path opacity="0.3" d="M224.069 375.744H221.755V378.058H224.069V375.744Z" fill="white" stroke="#263238" stroke-linecap="round" stroke-linejoin="round"/>
<path opacity="0.3" d="M227.622 375.744H225.308V378.058H227.622V375.744Z" fill="white" stroke="#263238" stroke-linecap="round" stroke-linejoin="round"/>
<path opacity="0.3" d="M231.176 375.744H228.861V378.058H231.176V375.744Z" fill="white" stroke="#263238" stroke-linecap="round" stroke-linejoin="round"/>
<path d="M266.838 392.061H163.861L162.482 381.027C161.851 387.093 161.57 393.557 161.442 398.864L161.804 400.337L163.861 396.199H172.698L167.181 400.746H249.001L246.067 396.199H266.779L272.565 399.507H276.703V378.467L266.838 392.061Z" fill="#263238" stroke="#263238" stroke-linecap="round" stroke-linejoin="round"/>
<path d="M347.711 349.059H351.159C350.797 343.986 349.347 332.812 343.667 323.414H340.16C342.206 327.739 346.928 338.878 347.711 349.059Z" fill="#263238" stroke="#263238" stroke-linecap="round" stroke-linejoin="round"/>
<path d="M273.138 330.381L274.4 333.887C272.847 335.372 271.94 337.408 271.875 339.556V349.106H264.126L270.613 330.404L273.138 330.381ZM236.903 335.056C231.585 338.294 223.543 345.436 219.651 349.012H245.553L258.959 328.44L250.135 329.072C245.48 330.495 241.031 332.523 236.903 335.103V335.056ZM290.472 332.555L287.316 331.924H282.909L281.647 333.186C281.647 333.186 284.803 333.502 285.153 335.395C285.37 337.277 285.476 339.17 285.469 341.064H287.678C287.678 341.064 287.678 337.557 289.256 336.026C290.148 335.125 291.097 334.282 292.096 333.502L290.472 332.555Z" fill="#525252" stroke="#263238" stroke-linecap="round" stroke-linejoin="round"/>
<path d="M328.916 346.756H328.401C327.893 346.756 327.393 346.635 326.94 346.403C326.488 346.172 326.097 345.837 325.799 345.425C325.501 345.013 325.305 344.537 325.227 344.035C325.15 343.532 325.192 343.019 325.351 342.536C325.994 340.561 327.081 338.562 328.916 338.258C332.691 337.627 343.094 340.771 343.094 342.934C343.094 345.096 343.094 346.078 341.832 346.078H333.953L327.688 353.068L327.548 352.951C327.224 352.678 326.963 352.337 326.784 351.952C326.605 351.568 326.512 351.149 326.512 350.724C326.512 350.3 326.605 349.881 326.784 349.496C326.963 349.112 327.224 348.771 327.548 348.498C328.098 347.998 328.561 347.409 328.916 346.756Z" fill="white" stroke="#263238" stroke-linecap="round" stroke-linejoin="round"/>
<path d="M327.513 352.951L327.653 353.068L333.953 346.125H341.831C342.871 346.125 343 345.471 343.082 343.998H325.233C325.338 344.763 325.717 345.465 326.299 345.972C326.882 346.479 327.629 346.758 328.401 346.757H328.915C328.55 347.412 328.075 348.001 327.513 348.498C327.188 348.771 326.927 349.112 326.748 349.497C326.569 349.881 326.476 350.301 326.476 350.725C326.476 351.149 326.569 351.568 326.748 351.953C326.927 352.337 327.188 352.678 327.513 352.951Z" fill="#263238" stroke="#263238" stroke-linecap="round" stroke-linejoin="round"/>
<path d="M346.974 356.668H339.879V358.187H346.974V356.668Z" fill="#263238" stroke="#263238" stroke-linecap="round" stroke-linejoin="round"/>
<path d="M378.884 356.668H371.789V358.187H378.884V356.668Z" fill="#263238" stroke="#263238" stroke-linecap="round" stroke-linejoin="round"/>
<path d="M379.387 350.59C379.387 350.59 384.518 354.096 387.499 366.299C387.499 366.299 374.828 367.819 374.828 402.768" stroke="#263238" stroke-linecap="round" stroke-linejoin="round"/>
<path d="M373.274 404.287H320.149C320.149 405.066 320.149 405.885 320.149 406.742C320.149 407.911 320.149 409.079 320.079 410.248H379.749C379.749 409.079 379.691 407.911 379.691 406.742C379.691 406.66 379.691 406.578 379.691 406.496L373.274 404.287Z" fill="#263238" stroke="#263238" stroke-linecap="round" stroke-linejoin="round"/>
<path d="M286.685 406.742C286.685 405.924 286.685 405.105 286.685 404.287H161.36C161.36 407.934 161.36 410.26 161.36 410.26H286.778C286.708 409.103 286.685 407.934 286.685 406.742Z" fill="#263238" stroke="#263238" stroke-linecap="round" stroke-linejoin="round"/>
<path d="M400.251 353.594C399.62 353.594 399 353.758 398.452 354.07C397.904 354.382 397.446 354.832 397.124 355.374C396.802 355.917 396.627 356.533 396.616 357.164C396.604 357.795 396.757 358.417 397.06 358.971L402.471 368.895V355.231C402.465 354.689 402.386 354.15 402.238 353.629H400.251V353.594Z" fill="#263238" stroke="#263238" stroke-linecap="round" stroke-linejoin="round"/>
<path d="M351.603 354.319C351.603 354.319 362.941 370.683 351.603 398.431" stroke="#263238" stroke-linecap="round" stroke-linejoin="round"/>
<path d="M756.085 120.559H667.428V427.208H756.085V120.559Z" fill="#666666" stroke="#263238" stroke-miterlimit="10"/>
<path d="M749.575 120.559H660.917V427.208H749.575V120.559Z" fill="#919191" stroke="#263238" stroke-miterlimit="10"/>
<path d="M749.575 120.559H660.917V342.782H749.575V120.559Z" fill="white" stroke="#263238" stroke-linecap="round" stroke-linejoin="round"/>
<path d="M749.575 205.535H660.917V257.677H749.575V205.535Z" fill="#263238" stroke="#263238" stroke-miterlimit="10"/>
<path d="M737.372 267.788H670.677V278.366H737.372V267.788Z" fill="white" stroke="#263238" stroke-linecap="round" stroke-linejoin="round"/>
<path d="M737.372 293.409H670.677V303.987H737.372V293.409Z" fill="white" stroke="#263238" stroke-linecap="round" stroke-linejoin="round"/>
<path d="M737.372 217.761H670.677V228.339H737.372V217.761Z" fill="#8F8F8F" stroke="#263238" stroke-linecap="round" stroke-linejoin="round"/>
<path d="M737.372 236.475H670.677V247.053H737.372V236.475Z" fill="#8F8F8F" stroke="#263238" stroke-linecap="round" stroke-linejoin="round"/>
<path d="M753.865 374.4C755.677 375.195 760.13 375.09 760.142 375.09C760.154 375.09 759.184 372.179 759.102 372.004C758.12 369.958 755.034 366.58 752.521 366.931C752.106 366.998 751.709 367.152 751.357 367.382C751.005 367.613 750.706 367.915 750.479 368.269C750.252 368.623 750.102 369.021 750.039 369.437C749.976 369.853 750.001 370.278 750.113 370.683C750.522 372.425 752.311 373.722 753.865 374.4Z" fill="#263238"/>
<path d="M755.396 387.292C757.29 387.573 761.241 386.416 761.58 386.322C762.228 388.6 763.032 390.83 763.987 392.996C764.537 394.259 765.156 395.521 765.729 396.772L764.993 395.708C763.508 393.99 759.639 391.559 757.302 392.552C756.918 392.728 756.576 392.982 756.297 393.298C756.019 393.614 755.81 393.986 755.684 394.388C755.558 394.791 755.519 395.215 755.568 395.634C755.617 396.052 755.754 396.456 755.969 396.819C756.834 398.385 758.891 399.156 760.574 399.402C762.609 399.404 764.631 399.093 766.571 398.478C766.816 398.958 767.05 399.437 767.284 399.916C768.452 402.254 769.621 404.486 770.662 406.766C771.036 407.56 771.375 408.367 771.725 409.162C771.398 408.694 771.129 408.297 771.082 408.25C769.598 406.532 765.729 404.089 763.391 405.082C763.008 405.258 762.666 405.512 762.387 405.828C762.108 406.145 761.899 406.516 761.774 406.918C761.648 407.321 761.609 407.745 761.658 408.164C761.707 408.583 761.843 408.986 762.059 409.349C762.924 410.915 764.993 411.686 766.664 411.944C768.646 411.952 770.617 411.656 772.508 411.067C772.836 411.897 773.163 412.727 773.443 413.545C773.619 414.118 773.829 414.644 773.981 415.216C774.133 415.789 774.297 416.385 774.449 416.911C774.717 417.987 774.986 419.109 775.22 420.172C775.384 420.909 775.524 421.622 775.664 422.335C775.302 421.528 774.495 419.997 774.495 419.857C773.327 417.94 769.82 414.936 767.377 415.567C766.972 415.682 766.596 415.882 766.273 416.152C765.951 416.422 765.688 416.757 765.503 417.135C765.318 417.513 765.214 417.925 765.199 418.346C765.183 418.766 765.256 419.186 765.413 419.576C766.033 421.259 767.95 422.335 769.575 422.837C771.199 423.34 775.302 422.837 775.793 422.837C776.027 424.006 776.249 425.175 776.436 426.25C776.494 426.589 776.553 426.905 776.599 427.232H778.154C778.072 426.823 778.002 426.414 777.908 425.981C777.675 424.813 777.406 423.504 777.102 422.194C778.303 421.726 779.474 421.183 780.609 420.57C782.139 421.883 783.842 422.98 785.67 423.831C785.214 424.941 784.758 426.017 784.325 427.033C784.29 427.097 784.258 427.164 784.232 427.232H785.857C786.277 426.215 786.698 425.14 787.119 424.018C787.598 424.123 791.502 424.906 793.326 424.497C794.974 424.123 796.973 423.2 797.709 421.563C797.895 421.185 798 420.772 798.017 420.351C798.033 419.93 797.961 419.51 797.804 419.118C797.648 418.727 797.41 418.373 797.108 418.079C796.806 417.786 796.445 417.559 796.049 417.414C793.641 416.607 789.971 419.342 788.627 421.154C788.557 421.271 787.82 422.533 787.376 423.34C787.563 422.826 787.762 422.323 787.949 421.797C788.335 420.745 788.685 419.693 789.118 418.559C789.281 418.01 789.445 417.449 789.62 416.876C789.796 416.303 789.913 415.707 790.065 415.123C790.392 413.755 790.661 412.341 790.894 410.915C792.761 411.665 794.732 412.122 796.739 412.271C798.434 412.154 800.549 411.534 801.519 410.038C801.762 409.693 801.93 409.301 802.011 408.886C802.092 408.472 802.085 408.045 801.99 407.634C801.896 407.223 801.715 406.836 801.461 406.499C801.206 406.162 800.884 405.882 800.514 405.678C798.258 404.51 794.226 406.66 792.613 408.262C792.519 408.355 791.444 409.641 790.941 410.342C791.082 409.489 791.21 408.636 791.327 407.771C791.631 405.246 791.876 402.698 792.122 400.15L792.367 397.812C792.695 397.929 796.552 399.367 798.445 399.238C800.14 399.121 802.256 398.502 803.226 396.994C803.469 396.65 803.636 396.258 803.717 395.845C803.798 395.431 803.791 395.005 803.696 394.595C803.601 394.184 803.421 393.799 803.167 393.463C802.912 393.127 802.59 392.848 802.221 392.646C799.965 391.477 795.932 393.628 794.319 395.229C794.202 395.346 792.73 397.181 792.379 397.672C792.566 395.954 792.753 394.247 793.022 392.576C793.356 390.313 793.844 388.075 794.483 385.878C794.635 385.878 798.656 387.456 800.596 387.316C802.291 387.199 804.406 386.579 805.377 385.072C805.619 384.727 805.787 384.336 805.868 383.922C805.949 383.509 805.942 383.083 805.847 382.673C805.752 382.262 805.572 381.876 805.317 381.54C805.063 381.205 804.741 380.926 804.371 380.723C802.115 379.555 798.071 381.705 796.47 383.307C796.341 383.423 794.763 385.411 794.506 385.785C794.506 385.656 794.506 385.527 794.6 385.399C795.297 383.208 796.188 381.084 797.265 379.052C797.837 377.883 798.434 376.878 799.076 375.873C799.789 376.235 803.097 377.848 804.862 377.918C806.627 377.988 808.731 377.591 809.865 376.212C810.142 375.894 810.35 375.522 810.474 375.119C810.599 374.717 810.637 374.293 810.588 373.874C810.538 373.456 810.401 373.052 810.186 372.69C809.971 372.327 809.683 372.014 809.339 371.77C807.223 370.367 802.969 372.062 801.157 373.477C801.064 373.547 800.163 374.435 799.521 375.09L800.386 373.745C801.449 372.156 802.513 370.753 803.471 369.526C804.021 368.824 804.535 368.205 805.014 367.632C805.914 367.632 809.503 367.515 811.069 366.779C812.635 366.043 814.353 364.71 814.727 362.969C814.828 362.559 814.841 362.132 814.767 361.717C814.692 361.302 814.531 360.907 814.294 360.557C814.058 360.208 813.75 359.913 813.392 359.69C813.033 359.467 812.632 359.321 812.214 359.263C809.69 358.994 806.697 362.454 805.774 364.523C805.692 364.698 804.769 367.644 804.816 367.644H804.874C804.395 368.182 803.88 368.813 803.343 369.421C802.361 370.589 801.251 372.015 800.152 373.593C798.949 375.286 797.845 377.046 796.844 378.865C795.735 380.876 794.805 382.98 794.062 385.153C794.057 385.18 794.057 385.208 794.062 385.235C794.062 384.487 794.062 382.407 794.062 382.255C793.77 380.01 791.888 375.838 789.387 375.37C788.967 375.298 788.536 375.317 788.124 375.424C787.712 375.532 787.327 375.726 786.995 375.993C786.663 376.261 786.393 376.596 786.2 376.976C786.008 377.356 785.899 377.773 785.88 378.199C785.728 379.987 787.049 381.764 788.288 382.874C789.527 383.985 793.653 385.375 793.969 385.469C793.265 387.729 792.71 390.033 792.309 392.365C792.063 393.721 791.865 395.089 791.678 396.48C791.678 395.837 791.678 395.252 791.678 395.182C791.385 392.926 789.504 388.765 787.002 388.298C786.582 388.228 786.153 388.248 785.741 388.356C785.33 388.464 784.946 388.658 784.614 388.925C784.283 389.192 784.012 389.527 783.819 389.906C783.627 390.285 783.516 390.701 783.496 391.126C783.355 392.903 784.665 394.691 785.903 395.802C787.601 396.926 789.462 397.781 791.42 398.338C791.362 398.876 791.292 399.402 791.222 399.928C790.918 402.476 790.626 405.024 790.263 407.502C790.135 408.379 789.983 409.243 789.819 410.097C789.819 409.524 789.819 409.045 789.819 408.928C789.527 406.684 787.645 402.511 785.144 402.043C784.724 401.972 784.293 401.99 783.881 402.098C783.469 402.205 783.084 402.399 782.752 402.666C782.42 402.934 782.15 403.269 781.957 403.649C781.765 404.029 781.656 404.446 781.637 404.872C781.497 406.66 782.806 408.437 784.045 409.547C785.694 410.65 787.504 411.49 789.41 412.037C789.223 412.914 789.036 413.79 788.814 414.632C788.662 415.193 788.545 415.801 788.346 416.315C788.148 416.829 787.984 417.484 787.809 417.987C787.423 419.038 787.037 420.114 786.64 421.131C786.371 421.832 786.102 422.51 785.833 423.176C785.962 422.311 786.196 420.605 786.196 420.453C786.172 418.461 785.637 416.509 784.641 414.784C784.659 414.562 784.659 414.339 784.641 414.118C784.588 413.7 784.448 413.297 784.23 412.937C784.012 412.576 783.72 412.266 783.374 412.026C783.028 411.785 782.635 411.621 782.221 411.542C781.807 411.463 781.381 411.473 780.971 411.57C778.516 412.224 776.962 416.525 776.845 418.793C776.845 418.922 776.927 420.383 776.997 421.294C776.88 420.768 776.763 420.242 776.634 419.705C776.377 418.618 776.085 417.542 775.781 416.385C775.606 415.836 775.442 415.275 775.267 414.702C775.092 414.129 774.881 413.533 774.682 412.996C774.192 411.663 773.642 410.342 773.046 409.033C773.993 408.799 777.359 407.946 778.703 406.906C780.047 405.865 781.473 404.194 781.462 402.406C781.473 401.984 781.395 401.564 781.234 401.174C781.072 400.785 780.83 400.433 780.523 400.143C780.217 399.853 779.853 399.631 779.454 399.491C779.056 399.351 778.633 399.297 778.212 399.332C775.688 399.6 773.537 403.621 773.046 405.842C773.046 405.982 772.871 407.607 772.801 408.507C772.438 407.712 772.088 406.929 771.702 406.169C770.533 403.832 769.364 401.634 768.195 399.367C767.821 398.677 767.471 397.976 767.108 397.286C767.447 397.204 771.456 396.281 772.953 395.124C774.285 394.095 775.711 392.4 775.699 390.612C775.71 390.191 775.633 389.773 775.472 389.384C775.311 388.995 775.07 388.644 774.765 388.354C774.46 388.064 774.097 387.842 773.7 387.701C773.303 387.561 772.881 387.505 772.462 387.538C769.937 387.818 767.786 391.828 767.284 394.048C767.284 394.224 767.038 396.561 767.015 397.158C766.22 395.626 765.448 394.095 764.747 392.564C763.78 390.49 762.952 388.354 762.269 386.17C762.421 386.17 766.617 385.177 768.113 383.985C769.458 382.956 770.884 381.273 770.872 379.484C770.883 379.063 770.806 378.643 770.644 378.253C770.482 377.863 770.24 377.512 769.934 377.222C769.627 376.932 769.263 376.71 768.865 376.57C768.466 376.43 768.043 376.376 767.623 376.41C765.11 376.691 762.947 380.7 762.456 382.921C762.456 383.096 762.199 385.621 762.187 386.077C762.187 385.948 762.094 385.82 762.059 385.691C761.433 383.485 761.003 381.228 760.773 378.947C760.633 377.684 760.563 376.469 760.528 375.288C761.334 375.195 764.981 374.704 766.489 373.792C767.997 372.88 769.539 371.454 769.715 369.619C769.774 369.202 769.745 368.777 769.629 368.372C769.513 367.967 769.312 367.592 769.041 367.269C768.769 366.947 768.433 366.686 768.054 366.503C767.674 366.32 767.261 366.218 766.839 366.206C764.303 366.206 761.685 369.958 760.995 372.051C760.995 372.167 760.703 373.406 760.528 374.306C760.528 373.769 760.528 373.219 760.528 372.717C760.528 370.788 760.656 369.035 760.773 367.48C760.843 366.604 760.937 365.797 761.019 365.061C761.755 364.546 764.689 362.478 765.589 361.005C766.115 360.259 766.473 359.407 766.637 358.509C766.8 357.61 766.766 356.687 766.536 355.803C766.394 355.408 766.17 355.046 765.88 354.742C765.589 354.438 765.238 354.199 764.849 354.039C764.46 353.879 764.042 353.803 763.622 353.815C763.202 353.827 762.789 353.927 762.409 354.109C760.154 355.277 759.557 359.813 759.931 362.045C759.931 362.232 760.808 365.201 760.855 365.166C760.75 365.879 760.656 366.65 760.563 367.504C760.411 369.058 760.247 370.812 760.2 372.74C760.131 374.814 760.182 376.89 760.352 378.958C760.536 381.276 760.927 383.572 761.521 385.82C761.514 385.846 761.514 385.875 761.521 385.901C761.124 385.282 759.943 383.564 759.838 383.435C758.354 381.729 754.485 379.286 752.147 380.279C751.763 380.454 751.421 380.709 751.142 381.025C750.864 381.342 750.656 381.714 750.531 382.117C750.406 382.519 750.368 382.944 750.419 383.363C750.47 383.781 750.609 384.184 750.826 384.546C751.656 386.322 753.725 387.059 755.396 387.292Z" fill="#263238"/>
<path d="M798.901 375.382C798.901 375.382 799.708 372.424 799.731 372.226C800.046 369.981 799.334 365.47 797.054 364.359C796.669 364.186 796.252 364.096 795.83 364.094C795.408 364.093 794.99 364.181 794.604 364.352C794.218 364.522 793.873 364.773 793.59 365.086C793.307 365.4 793.094 365.769 792.963 366.171C792.758 367.059 792.748 367.982 792.936 368.874C793.124 369.767 793.504 370.607 794.05 371.337C795.126 373.009 798.901 375.382 798.901 375.382Z" fill="#263238"/>
<path d="M699.069 393.511C700.376 393.858 701.727 394.008 703.078 393.955C703.078 393.955 702.471 392.096 702.412 391.98C701.793 390.682 699.817 388.532 698.216 388.742C697.95 388.786 697.697 388.886 697.472 389.034C697.247 389.183 697.056 389.377 696.91 389.604C696.765 389.83 696.669 390.085 696.628 390.351C696.587 390.618 696.602 390.89 696.673 391.15C696.878 391.693 697.199 392.185 697.612 392.593C698.026 393 698.523 393.314 699.069 393.511Z" fill="#263238"/>
<path d="M700.051 401.739C701.387 401.731 702.715 401.523 703.99 401.12C704.412 402.57 704.927 403.991 705.533 405.374C705.883 406.181 706.257 406.987 706.702 407.794C706.468 407.455 706.257 407.151 706.234 407.104C705.287 406.017 702.809 404.463 701.325 405.094C701.08 405.205 700.861 405.367 700.683 405.569C700.505 405.771 700.371 406.008 700.29 406.265C700.21 406.522 700.184 406.793 700.216 407.06C700.247 407.328 700.334 407.586 700.472 407.817C700.812 408.288 701.251 408.679 701.757 408.964C702.264 409.249 702.826 409.42 703.405 409.465C704.706 409.471 705.999 409.274 707.239 408.881L707.695 409.793C708.431 411.254 709.168 412.715 709.846 414.164C710.091 414.678 710.313 415.181 710.524 415.695C710.325 415.391 710.15 415.146 710.115 415.111C709.168 414.012 706.702 412.458 705.205 413.089C704.963 413.203 704.746 413.366 704.57 413.569C704.394 413.771 704.263 414.008 704.183 414.265C704.104 414.521 704.079 414.791 704.11 415.058C704.141 415.324 704.228 415.581 704.364 415.812C704.704 416.284 705.143 416.677 705.649 416.963C706.155 417.25 706.718 417.423 707.298 417.472C708.562 417.473 709.819 417.284 711.026 416.911C711.237 417.437 711.447 417.975 711.622 418.489C711.798 419.003 711.88 419.19 711.973 419.564C712.067 419.938 712.172 420.277 712.265 420.64C712.441 421.329 712.616 422.042 712.756 422.72C712.861 423.188 712.955 423.644 713.048 424.099C712.815 423.585 712.335 422.592 712.289 422.521C711.517 421.294 709.308 419.377 707.742 419.775C707.483 419.85 707.243 419.978 707.037 420.152C706.831 420.326 706.664 420.541 706.546 420.783C706.428 421.025 706.363 421.289 706.353 421.559C706.344 421.828 706.391 422.096 706.491 422.346C706.756 422.864 707.13 423.317 707.589 423.674C708.047 424.032 708.578 424.284 709.144 424.415C710.457 424.62 711.794 424.62 713.107 424.415C713.259 425.175 713.399 425.899 713.516 426.601C713.516 426.811 713.586 427.022 713.621 427.22H714.58C714.58 426.963 714.486 426.694 714.428 426.425C714.276 425.654 714.1 424.847 713.913 424.006C714.672 423.708 715.41 423.361 716.123 422.966C717.097 423.805 718.182 424.505 719.349 425.046C719.068 425.759 718.776 426.449 718.495 427.092C718.478 427.135 718.458 427.178 718.437 427.22H719.477L720.284 425.175C721.578 425.47 722.91 425.572 724.234 425.479C724.809 425.389 725.358 425.175 725.842 424.852C726.327 424.529 726.735 424.105 727.04 423.608C727.158 423.366 727.224 423.102 727.233 422.833C727.243 422.564 727.196 422.296 727.096 422.046C726.996 421.796 726.844 421.57 726.651 421.382C726.459 421.194 726.228 421.049 725.976 420.955C724.445 420.441 722.107 422.182 721.242 423.351C721.242 423.41 720.728 424.216 720.436 424.731L720.81 423.749C721.055 423.082 721.277 422.416 721.523 421.692L721.838 420.616C721.955 420.266 722.037 419.868 722.13 419.447C722.341 418.571 722.504 417.671 722.656 416.771C723.856 417.247 725.121 417.534 726.408 417.624C726.99 417.624 727.565 417.496 728.092 417.25C728.619 417.004 729.086 416.644 729.459 416.198C729.616 415.979 729.724 415.729 729.777 415.466C729.829 415.202 729.825 414.93 729.764 414.667C729.703 414.405 729.587 414.159 729.424 413.945C729.26 413.732 729.053 413.555 728.816 413.428C727.379 412.68 724.807 414.047 723.778 415.064C723.708 415.134 723.066 415.952 722.715 416.397C722.797 415.859 722.89 415.31 722.949 414.749C723.159 413.147 723.299 411.523 723.463 409.886C723.463 409.395 723.568 408.893 723.615 408.402C724.855 408.898 726.164 409.205 727.495 409.313C728.078 409.308 728.653 409.178 729.181 408.932C729.709 408.686 730.179 408.33 730.558 407.887C730.712 407.666 730.819 407.415 730.869 407.15C730.92 406.885 730.914 406.613 730.853 406.35C730.791 406.087 730.674 405.841 730.511 405.626C730.347 405.412 730.14 405.234 729.903 405.106C728.466 404.369 725.894 405.737 724.866 406.754C724.795 406.824 723.849 408.004 723.627 408.308C723.743 407.221 723.872 406.134 724.036 405.059C724.258 403.615 724.57 402.186 724.971 400.781C726.218 401.284 727.534 401.595 728.875 401.704C729.457 401.704 730.031 401.577 730.559 401.33C731.086 401.084 731.552 400.725 731.925 400.278C732.08 400.058 732.187 399.807 732.239 399.543C732.291 399.278 732.286 399.006 732.225 398.744C732.165 398.481 732.049 398.234 731.887 398.019C731.724 397.805 731.518 397.626 731.283 397.496C729.845 396.76 727.262 398.127 726.233 399.144C726.163 399.226 725.146 400.489 724.982 400.722L725.053 400.477C725.494 399.08 726.062 397.727 726.747 396.433C727.11 395.72 727.507 395.042 727.916 394.399C729.077 395.022 730.327 395.464 731.622 395.708C732.2 395.765 732.784 395.698 733.335 395.51C733.885 395.323 734.389 395.02 734.812 394.621C734.989 394.419 735.122 394.182 735.201 393.925C735.28 393.668 735.305 393.398 735.273 393.131C735.241 392.864 735.153 392.607 735.015 392.377C734.878 392.146 734.693 391.947 734.474 391.792C733.129 390.892 730.406 391.968 729.284 392.868L728.244 393.908C728.419 393.616 728.606 393.323 728.793 393.043C729.471 392.026 730.149 391.138 730.757 390.355C731.107 389.91 731.435 389.513 731.75 389.186C733.059 389.207 734.363 389.029 735.619 388.66C736.161 388.448 736.651 388.121 737.055 387.701C737.459 387.281 737.766 386.779 737.957 386.229C738.02 385.969 738.027 385.699 737.979 385.436C737.931 385.173 737.828 384.923 737.677 384.703C737.526 384.482 737.33 384.296 737.103 384.156C736.875 384.016 736.62 383.926 736.355 383.891C734.754 383.715 732.849 385.925 732.253 387.245C732.253 387.351 731.61 389.232 731.633 389.232C731.329 389.571 731.014 389.945 730.663 390.401C730.032 391.173 729.331 392.049 728.629 393.066C727.863 394.143 727.161 395.263 726.525 396.421C725.803 397.721 725.197 399.082 724.714 400.489C724.714 400.021 724.714 398.688 724.714 398.583C724.527 397.157 723.323 394.492 721.733 394.2C721.467 394.159 721.196 394.174 720.937 394.244C720.678 394.314 720.436 394.438 720.228 394.608C720.019 394.778 719.849 394.99 719.728 395.229C719.607 395.469 719.537 395.732 719.524 396C719.547 396.583 719.697 397.154 719.964 397.672C720.23 398.191 720.607 398.646 721.067 399.004C722.184 399.734 723.406 400.29 724.69 400.652C724.241 402.097 723.886 403.569 723.627 405.059C723.475 405.924 723.346 406.8 723.229 407.677C723.229 407.268 723.229 406.906 723.229 406.847C723.042 405.421 721.838 402.756 720.249 402.464C719.983 402.423 719.712 402.438 719.453 402.508C719.193 402.578 718.951 402.702 718.743 402.872C718.535 403.042 718.365 403.253 718.243 403.493C718.122 403.733 718.053 403.996 718.039 404.264C718.064 404.845 718.214 405.414 718.478 405.933C718.742 406.451 719.115 406.906 719.571 407.268C720.65 407.982 721.832 408.526 723.077 408.881C723.077 409.22 722.984 409.559 722.949 409.898C722.75 411.523 722.563 413.147 722.329 414.737C722.243 415.29 722.15 415.839 722.049 416.385C722.049 416.023 722.049 415.719 722.049 415.672C721.862 414.234 720.658 411.569 719.068 411.277C718.803 411.236 718.531 411.251 718.272 411.321C718.013 411.391 717.771 411.515 717.563 411.685C717.354 411.855 717.184 412.067 717.063 412.306C716.942 412.546 716.872 412.809 716.859 413.077C716.88 413.659 717.028 414.23 717.292 414.748C717.557 415.267 717.931 415.722 718.39 416.081C719.445 416.781 720.6 417.317 721.815 417.671C721.698 418.232 721.581 418.781 721.441 419.319C721.301 419.856 721.254 420.043 721.137 420.406L720.786 421.469C720.552 422.136 720.295 422.825 720.05 423.468C719.875 423.924 719.699 424.345 719.524 424.777C719.617 424.228 719.769 423.129 719.769 423.036C719.748 421.766 719.402 420.522 718.764 419.424C718.782 419.284 718.782 419.143 718.764 419.003C718.732 418.736 718.644 418.479 718.505 418.249C718.366 418.018 718.181 417.82 717.96 417.666C717.739 417.513 717.488 417.408 717.224 417.358C716.96 417.309 716.688 417.316 716.426 417.378C714.86 417.788 713.867 420.534 713.796 421.984C713.796 422.066 713.796 422.989 713.89 423.573C713.808 423.234 713.738 422.907 713.656 422.556C713.493 421.867 713.306 421.177 713.107 420.441L712.791 419.377C712.686 419.015 712.534 418.641 712.406 418.278C712.102 417.437 711.739 416.595 711.365 415.754C712.63 415.483 713.847 415.027 714.977 414.398C715.461 414.076 715.869 413.651 716.172 413.154C716.475 412.658 716.666 412.101 716.73 411.523C716.738 411.254 716.688 410.986 716.586 410.737C716.483 410.489 716.329 410.265 716.134 410.079C715.939 409.894 715.707 409.752 715.453 409.662C715.199 409.573 714.93 409.537 714.661 409.559C713.06 409.734 711.657 412.306 711.365 413.72C711.365 413.802 711.248 414.889 711.213 415.415C710.98 414.912 710.757 414.41 710.5 413.907C709.787 412.458 709.016 411.008 708.244 409.571L707.555 408.238C708.864 407.969 710.125 407.504 711.295 406.859C711.78 406.537 712.187 406.112 712.49 405.615C712.793 405.119 712.984 404.562 713.048 403.983C713.056 403.714 713.007 403.447 712.904 403.198C712.801 402.95 712.647 402.725 712.452 402.54C712.257 402.355 712.025 402.213 711.771 402.123C711.517 402.034 711.248 401.998 710.98 402.02C709.378 402.195 707.976 404.767 707.683 406.181C707.683 406.286 707.531 407.782 707.508 408.156C707.005 407.186 706.515 406.204 706.059 405.222C705.445 403.898 704.918 402.536 704.481 401.143C705.797 400.869 707.066 400.4 708.244 399.752C708.716 399.417 709.108 398.982 709.395 398.48C709.682 397.977 709.855 397.418 709.904 396.842C709.91 396.574 709.859 396.308 709.756 396.06C709.652 395.813 709.498 395.59 709.303 395.406C709.108 395.222 708.877 395.081 708.624 394.992C708.371 394.903 708.102 394.868 707.835 394.89C706.222 395.065 704.831 397.625 704.539 399.039C704.539 399.156 704.376 400.757 704.364 401.05C704.364 400.968 704.364 400.898 704.282 400.816C703.882 399.405 703.608 397.962 703.464 396.503C703.37 395.696 703.335 394.925 703.312 394.165C704.619 394.037 705.899 393.714 707.111 393.207C707.626 392.938 708.077 392.561 708.432 392.1C708.788 391.64 709.039 391.108 709.168 390.542C709.206 390.276 709.187 390.005 709.113 389.746C709.039 389.488 708.911 389.248 708.738 389.043C708.564 388.838 708.35 388.671 708.107 388.555C707.865 388.439 707.601 388.375 707.333 388.367C705.708 388.367 704.048 390.705 703.592 392.131C703.592 392.201 703.405 392.996 703.3 393.569C703.3 393.23 703.3 392.879 703.3 392.552C703.3 391.383 703.37 390.214 703.452 389.209C703.452 388.648 703.557 388.145 703.616 387.666C704.709 386.955 705.69 386.084 706.526 385.083C706.862 384.607 707.09 384.063 707.195 383.49C707.3 382.917 707.279 382.328 707.134 381.763C707.044 381.509 706.902 381.277 706.716 381.082C706.53 380.886 706.305 380.732 706.056 380.63C705.807 380.527 705.539 380.478 705.269 380.486C705 380.494 704.735 380.559 704.492 380.676C703.055 381.425 702.681 384.312 702.914 385.738C702.914 385.866 703.476 387.76 703.499 387.736C703.429 388.192 703.37 388.683 703.312 389.221C703.218 390.203 703.113 391.325 703.078 392.564C703.039 393.885 703.075 395.208 703.183 396.526C703.294 398.006 703.537 399.473 703.908 400.909C703.651 400.512 702.903 399.413 702.833 399.343C701.886 398.244 699.42 396.69 697.935 397.321C697.69 397.433 697.471 397.595 697.293 397.796C697.115 397.998 696.981 398.235 696.901 398.492C696.82 398.749 696.795 399.02 696.826 399.288C696.857 399.555 696.944 399.813 697.082 400.044C697.419 400.53 697.861 400.934 698.375 401.227C698.888 401.521 699.461 401.695 700.051 401.739Z" fill="#263238"/>
<path d="M727.811 394.142C727.811 394.142 728.326 392.248 728.349 392.131C728.548 390.694 728.092 387.807 726.631 387.105C726.385 386.996 726.118 386.939 725.848 386.939C725.579 386.94 725.312 386.997 725.066 387.107C724.82 387.218 724.6 387.379 724.421 387.58C724.241 387.781 724.106 388.017 724.024 388.274C723.891 388.841 723.884 389.429 724.003 389.999C724.122 390.569 724.365 391.105 724.714 391.57C725.615 392.574 726.659 393.441 727.811 394.142Z" fill="#263238"/>
<path d="M0 427.208H818.982" stroke="#263238" stroke-miterlimit="10"/>
</svg>
