<svg width="221" height="61" viewBox="0 0 221 61" fill="none" xmlns="http://www.w3.org/2000/svg">
<path d="M18.2058 0H42.6411C52.6953 0 60.8469 8.15155 60.8469 18.2058V42.6411C60.8469 52.6953 52.6953 60.8469 42.6411 60.8469H18.2058C8.15155 60.8469 0 52.6953 0 42.6411V18.2058C0 8.15155 8.15155 0 18.2058 0Z" fill="white"/>
<path d="M41.4532 50.8498H19.3938C14.1494 50.8498 9.88042 46.5809 9.88042 41.3364V17.3454H15.9072V41.3364C15.9072 43.2584 17.4718 44.8231 19.3938 44.8231H41.4628C43.3848 44.8231 44.9495 43.2584 44.9495 41.3364V26.7815C44.9495 24.8595 43.3848 23.2949 41.4628 23.2949H39.9465V26.7815C39.9465 32.0259 35.6776 36.2948 30.4331 36.2948H30.4138C25.1694 36.2948 20.9005 32.0259 20.9005 26.7815C20.9005 21.5371 25.1694 17.2681 30.4138 17.2681H33.9198V7.34912H39.9465V17.2681H41.4628C46.7073 17.2681 50.9762 21.5371 50.9762 26.7815V41.3364C50.9665 46.5809 46.6976 50.8498 41.4532 50.8498ZM30.4138 23.2949C28.4918 23.2949 26.9272 24.8595 26.9272 26.7815C26.9272 28.7035 28.4918 30.2681 30.4138 30.2681H30.4331C32.3551 30.2681 33.9198 28.7035 33.9198 26.7815V23.2949H30.4138Z" fill="#0046FF"/>
<path d="M68.0524 19.0442L74.195 18.0591V24.4432H81.5739V29.5524H74.195V37.1824C74.195 38.4766 74.4171 39.5004 74.8711 40.273C75.325 41.0457 76.2329 41.4223 77.614 41.4223C78.2708 41.4223 78.9565 41.3644 79.6519 41.2388C80.3569 41.1133 80.9944 40.9394 81.5642 40.727L82.4335 45.5078C81.6898 45.8072 80.8688 46.068 79.961 46.2901C79.0531 46.5122 77.9424 46.6185 76.6192 46.6185C74.9387 46.6185 73.5575 46.3963 72.4565 45.9424C71.3555 45.4885 70.4766 44.8607 69.8198 44.0494C69.1631 43.2381 68.6995 42.253 68.4387 41.1036C68.1779 39.9543 68.0427 38.6698 68.0427 37.2693V19.0442H68.0524Z" fill="white"/>
<path d="M106.009 35.2408C106.009 36.9406 105.758 38.5053 105.266 39.9154C104.773 41.3351 104.058 42.5424 103.121 43.5469C102.185 44.5513 101.064 45.324 99.7603 45.8745C98.4565 46.425 96.9884 46.6955 95.3755 46.6955C93.7819 46.6955 92.3332 46.425 91.0293 45.8745C89.7254 45.324 88.6051 44.5513 87.6682 43.5469C86.7314 42.5424 86.007 41.3351 85.4855 39.9154C84.9639 38.4956 84.7032 36.9406 84.7032 35.2408C84.7032 33.5409 84.9736 31.986 85.5048 30.5855C86.036 29.1851 86.7797 27.9875 87.7262 27.0023C88.6727 26.0172 89.8027 25.2445 91.1066 24.694C92.4104 24.1435 93.8302 23.873 95.3755 23.873C96.9401 23.873 98.3792 24.1435 99.6831 24.694C100.987 25.2445 102.107 26.0172 103.044 27.0023C103.981 27.9875 104.705 29.1851 105.227 30.5855C105.748 31.986 106.009 33.5409 106.009 35.2408ZM99.741 35.2408C99.741 33.3478 99.3644 31.8507 98.611 30.769C97.8577 29.6873 96.7759 29.1368 95.3755 29.1368C93.9751 29.1368 92.8837 29.6776 92.1207 30.769C91.348 31.8507 90.9714 33.3478 90.9714 35.2408C90.9714 37.1338 91.3577 38.6405 92.1207 39.7512C92.8933 40.8619 93.9751 41.4221 95.3755 41.4221C96.7759 41.4221 97.8577 40.8619 98.611 39.7512C99.3644 38.6405 99.741 37.1435 99.741 35.2408Z" fill="white"/>
<path d="M129.875 45.4208C129.324 45.585 128.696 45.7395 127.982 45.8941C127.267 46.0486 126.523 46.1742 125.731 46.2901C124.949 46.3963 124.147 46.4929 123.336 46.5605C122.525 46.6281 121.752 46.6667 121.008 46.6667C119.222 46.6667 117.628 46.406 116.228 45.8844C114.827 45.3629 113.649 44.6095 112.683 43.634C111.717 42.6586 110.983 41.4803 110.481 40.0895C109.969 38.6987 109.718 37.1437 109.718 35.4149C109.718 33.6571 109.94 32.0731 110.375 30.6534C110.809 29.2336 111.447 28.036 112.268 27.0509C113.089 26.0657 114.103 25.3027 115.3 24.7812C116.498 24.2596 117.86 23.9989 119.405 23.9989C120.255 23.9989 121.018 24.0858 121.694 24.25C122.37 24.4142 123.046 24.646 123.732 24.955V15.1326L129.875 14.1475V45.4208ZM115.986 35.1155C115.986 37.0085 116.411 38.5345 117.261 39.6935C118.111 40.8428 119.376 41.4223 121.057 41.4223C121.607 41.4223 122.11 41.403 122.583 41.3644C123.046 41.3257 123.433 41.2774 123.732 41.2195V30.0546C123.346 29.8035 122.844 29.6006 122.225 29.4364C121.607 29.2723 120.979 29.1853 120.352 29.1853C117.435 29.1853 115.986 31.1653 115.986 35.1155Z" fill="white"/>
<path d="M143.435 23.8633C145.25 23.8633 146.757 24.0661 147.964 24.4814C149.172 24.8967 150.137 25.4859 150.872 26.2489C151.596 27.0215 152.117 27.9487 152.417 29.0498C152.716 30.1508 152.871 31.3677 152.871 32.7199V45.4977C151.992 45.6909 150.765 45.913 149.201 46.1738C147.636 46.4346 145.743 46.5698 143.512 46.5698C142.112 46.5698 140.837 46.4442 139.697 46.2028C138.557 45.9517 137.572 45.546 136.751 44.9858C135.93 44.4257 135.293 43.6916 134.858 42.7838C134.414 41.8759 134.201 40.7652 134.201 39.442C134.201 38.1768 134.453 37.1047 134.964 36.2258C135.476 35.3469 136.152 34.6419 137.002 34.1203C137.852 33.5988 138.828 33.2221 139.929 32.9903C141.03 32.7585 142.169 32.6426 143.348 32.6426C144.14 32.6426 144.854 32.6812 145.473 32.7489C146.091 32.8165 146.593 32.9034 146.979 33.0193V32.4398C146.979 31.3967 146.661 30.5564 146.033 29.9287C145.405 29.3009 144.304 28.9821 142.739 28.9821C141.696 28.9821 140.663 29.0594 139.649 29.2043C138.635 29.3588 137.756 29.5713 137.012 29.8417L136.23 24.8967C136.587 24.7905 137.031 24.6649 137.572 24.549C138.103 24.4235 138.692 24.3172 139.32 24.2206C139.948 24.1241 140.614 24.0468 141.32 23.9695C142.015 23.9019 142.72 23.8633 143.435 23.8633ZM143.927 41.8373C144.536 41.8373 145.106 41.8276 145.656 41.7986C146.207 41.7696 146.641 41.731 146.979 41.6731V37.0178C146.728 36.9598 146.361 36.9116 145.869 36.8536C145.376 36.7957 144.922 36.7667 144.507 36.7667C143.927 36.7667 143.386 36.8053 142.875 36.8729C142.363 36.9405 141.918 37.0757 141.532 37.2689C141.146 37.4621 140.846 37.7228 140.624 38.0512C140.402 38.3796 140.296 38.7949 140.296 39.2875C140.296 40.2533 140.614 40.9197 141.262 41.2867C141.918 41.6537 142.797 41.8373 143.927 41.8373Z" fill="white"/>
<path d="M171.502 29.8804C170.952 29.7452 170.304 29.6003 169.561 29.4458C168.817 29.2912 168.025 29.214 167.166 29.214C166.779 29.214 166.316 29.2526 165.784 29.3202C165.253 29.3878 164.848 29.4651 164.567 29.5424V46.1159H158.425V25.6018C159.526 25.2155 160.82 24.8581 162.317 24.5104C163.814 24.1627 165.485 23.9985 167.32 23.9985C167.648 23.9985 168.044 24.0179 168.518 24.0565C168.981 24.0951 169.455 24.1531 169.918 24.2207C170.382 24.2883 170.855 24.3752 171.319 24.4718C171.782 24.5684 172.188 24.6843 172.516 24.8195L171.502 29.8804Z" fill="white"/>
<path d="M195.696 35.2408C195.696 36.9406 195.445 38.5053 194.952 39.9154C194.459 41.3351 193.745 42.5424 192.808 43.5469C191.871 44.5513 190.751 45.324 189.447 45.8745C188.143 46.425 186.675 46.6955 185.062 46.6955C183.468 46.6955 182.02 46.425 180.716 45.8745C179.412 45.324 178.292 44.5513 177.355 43.5469C176.418 42.5424 175.693 41.3351 175.172 39.9154C174.65 38.4956 174.39 36.9406 174.39 35.2408C174.39 33.5409 174.66 31.986 175.191 30.5855C175.722 29.1851 176.466 27.9875 177.413 27.0023C178.359 26.0172 179.489 25.2445 180.793 24.694C182.097 24.1435 183.517 23.873 185.062 23.873C186.627 23.873 188.066 24.1435 189.37 24.694C190.673 25.2445 191.794 26.0172 192.731 27.0023C193.667 27.9875 194.392 29.1851 194.913 30.5855C195.435 31.986 195.696 33.5409 195.696 35.2408ZM189.427 35.2408C189.427 33.3478 189.051 31.8507 188.297 30.769C187.544 29.6873 186.462 29.1368 185.062 29.1368C183.662 29.1368 182.57 29.6776 181.807 30.769C181.034 31.8507 180.658 33.3478 180.658 35.2408C180.658 37.1338 181.044 38.6405 181.807 39.7512C182.58 40.8619 183.662 41.4221 185.062 41.4221C186.462 41.4221 187.544 40.8619 188.297 39.7512C189.051 38.6405 189.427 37.1435 189.427 35.2408Z" fill="white"/>
<path d="M206.57 32.2277C207.179 31.5709 207.797 30.8852 208.444 30.1801C209.091 29.4654 209.709 28.77 210.318 28.065C210.926 27.3599 211.496 26.7032 212.027 26.0754C212.559 25.4476 213.022 24.8971 213.408 24.4335H220.71C219.252 26.1044 217.832 27.7076 216.441 29.224C215.05 30.75 213.534 32.3146 211.882 33.9372C212.703 34.6809 213.553 35.5694 214.442 36.6029C215.321 37.6363 216.171 38.6987 217.001 39.7997C217.822 40.9008 218.585 42.0018 219.271 43.1028C219.957 44.2039 220.536 45.2083 221 46.1162H213.94C213.505 45.4015 213.003 44.6095 212.443 43.7403C211.882 42.871 211.284 42.0018 210.656 41.1422C210.028 40.273 209.362 39.4424 208.657 38.6407C207.961 37.8391 207.266 37.163 206.58 36.6125V46.1162H200.437V15.1326L206.58 14.1475V32.2277H206.57Z" fill="white"/>
</svg>
